<svg xmlns="http://www.w3.org/2000/svg" viewBox="0 0.71 220 342.9"><metadata xmlns:fl="https://football-logos.cc/england/england-national-team">dl1_376349c3839807711053b1e2fba61165a91912c869414a2c4db649e46b115fad</metadata><!-- Source: https://football-logos.cc --><g clip-path="url(#a)" transform="matrix(7.09242 0 0 -7.09242 -331.691 536.436)" data-source="https://football-logos.cc"><path fill="#fff" d="M62.278 27.188c-4.979 1.342-9.098 3.572-11.727 6.565-2.51 2.846-3.789 6.4-3.784 10.414v19.896h31.019V44.167c.006-4.013-1.272-7.568-3.783-10.414-2.629-2.993-6.743-5.223-11.725-6.565"></path><path fill="#fff" d="M76.433 44.166c0-7.64-4.938-13.04-14.187-15.603-9.253 2.562-14.155 7.962-14.155 15.603v18.377h28.342z"></path><path fill="#2b57ac" d="M76.175 44.169c0-7.486-4.835-12.775-13.897-15.285-9.065 2.51-13.866 7.799-13.866 15.285v18.004h27.763zM47.642 62.923V44.167c0-3.832 1.202-7.146 3.567-9.837 2.479-2.824 6.201-4.92 11.066-6.23 4.868 1.31 8.592 3.406 11.072 6.23 2.365 2.69 3.564 6.005 3.564 9.837v18.756z"></path><path fill="#1c5329" d="m61.847 39.451-.008.135h-.082c-.06-.033-.13-.123-.179-.253l-.023-.062c-.057-.177-.055-.312-.055-.312s.133.135.213.243l.034.051z"></path><path fill="#ea1f29" d="M61.112 40.317c-.097-.068-.34-.287-.196-.628a.67.67 0 0 1 .639-.417l.022.061c.05.13.12.22.18.253a2 2 0 0 1-.082.366 2 2 0 0 1-.219.36c-.059-.034-.167-.046-.344.005M62.252 40.86c-.04.057-.068.183-.082.369v.037c-.104.084-.468.334-.815.05-.359-.29-.227-.663-.166-.792l.294-.094c.081.064.217.168.345.248.132.083.308.149.424.183"></path><path fill="#1c5329" d="M61.158 40.528a.85.85 0 0 1-.388-.023s.053-.107.335-.187h.007c.178-.052.286-.039.345-.007l.055.077-.028.041-.295.095z"></path><path fill="#ea1f29" d="M62.862 39.676c-.133.003-.335 0-.494-.033a3 3 0 0 1-.52-.192l-.1-.197-.035-.052a.81.81 0 0 1 .732-.292c.482.06.602.392.623.473l-.032.038zM63.427 40.58l-.125-.061c-.126-.047-.235-.09-.305-.094a1.2 1.2 0 0 1-.062-.3c-.008-.118.012-.25.028-.338a1.2 1.2 0 0 0 .21-.221l.022-.03.047-.077c.143-.006.46.034.526.484.078.503-.27.62-.34.638M63.372 40.7c.013.06.106.549-.33.774-.307.157-.564-.007-.69-.12l.013-.082a1 1 0 0 0-.011-.377c.034-.027.168-.127.315-.197.13-.06.292-.108.335-.118l.235.087z"></path><path fill="#1c5329" d="m62.365 41.272-.014.083c-.035.165-.113.188-.113.188s-.077-.046-.068-.278v-.037c.013-.185.041-.311.081-.368l.054-.027.046.06.002.003c.025.08.03.222.012.376M63.427 40.58c.11.06.232.134.226.145a1 1 0 0 1-.28-.023l-.135-.035-.234-.087-.086-.114.08-.041c.07.004.178.047.304.094zM63.173 39.565q-.12.155-.21.222l-.06.038-.062-.006-.007-.077.028-.066.173-.255.032-.038.026-.024c.113-.105.215-.109.215-.109s.002.084-.066.209l-.048.076z"></path><path fill="#f2bb0e" d="M62.584 40.315c.04-.152-.085-.315-.277-.364s-.381.033-.42.184c-.04.15.087.312.278.361.192.051.379-.03.419-.18"></path><path fill="#1c5329" d="m72.142 39.451-.008.135h-.083a.5.5 0 0 1-.178-.253l-.02-.062c-.058-.177-.058-.312-.058-.312s.135.135.216.243l.032.051z"></path><path fill="#ea1f29" d="M71.405 40.317c-.094-.068-.337-.287-.193-.628a.67.67 0 0 1 .641-.417l.02.061c.047.13.12.22.178.253a2 2 0 0 1-.08.366c-.05.12-.158.276-.219.36-.058-.034-.167-.046-.347.005M72.548 40.86c-.04.057-.067.183-.082.369l-.003.037c-.1.084-.465.334-.812.05-.358-.29-.227-.663-.17-.792l.297-.094c.08.064.218.168.345.248.134.083.31.149.425.183"></path><path fill="#1c5329" d="M71.45 40.528c-.23.035-.382-.023-.382-.023s.05-.107.332-.187h.005c.18-.052.289-.039.348-.007l.055.077-.03.041-.296.095z"></path><path fill="#ea1f29" d="M73.156 39.676c-.132.003-.332 0-.49-.033a3 3 0 0 1-.525-.192l-.098-.197-.033-.052a.8.8 0 0 1 .73-.292c.481.06.601.392.623.473l-.032.038zM73.725 40.58l-.127-.061c-.128-.047-.234-.09-.303-.094a1 1 0 0 1-.065-.3c-.008-.118.013-.25.03-.338q.088-.066.208-.221l.02-.03.05-.077c.145-.006.459.034.527.484.078.503-.271.62-.34.638M73.668 40.7c.015.06.106.549-.329.774-.31.157-.564-.007-.69-.12l.012-.082a1 1 0 0 0-.013-.377c.038-.027.17-.127.315-.197.13-.06.293-.108.336-.118l.235.087z"></path><path fill="#1c5329" d="m72.662 41.272-.013.083c-.037.165-.114.188-.114.188s-.078-.046-.071-.278l.003-.037c.015-.185.042-.311.08-.368l.056-.027.045.06v.003a1 1 0 0 1 .014.376M73.725 40.58c.109.06.23.134.224.145a1 1 0 0 1-.28-.023l-.135-.035-.235-.087-.087-.114.083-.041c.069.004.175.047.303.094zM73.468 39.565q-.12.155-.208.222l-.063.038-.06-.006-.007-.077.026-.066.175-.255.032-.038.024-.024c.115-.105.218-.109.218-.109s0 .084-.068.209l-.048.076z"></path><path fill="#f2bb0e" d="M72.88 40.315c.04-.152-.085-.315-.277-.364-.193-.048-.381.033-.42.184-.04.15.085.312.278.361.193.051.38-.03.419-.18"></path><path fill="#1c5329" d="m51.472 39.451-.007.135h-.081c-.06-.033-.13-.123-.179-.253l-.02-.062c-.059-.177-.058-.312-.058-.312s.134.135.215.243l.033.051z"></path><path fill="#ea1f29" d="M50.736 40.317c-.093-.068-.335-.287-.194-.628a.67.67 0 0 1 .643-.417l.02.061a.5.5 0 0 0 .178.253 2 2 0 0 1-.08.366c-.049.12-.158.276-.218.36-.06-.034-.168-.046-.349.005M51.877 40.86c-.037.057-.067.183-.08.369l-.001.037c-.102.084-.465.334-.814.05-.358-.29-.228-.663-.164-.792l.293-.094c.08.064.217.168.345.248.133.083.309.149.42.183"></path><path fill="#1c5329" d="M50.783 40.528c-.23.035-.385-.023-.385-.023s.05-.107.334-.187h.005c.18-.052.289-.039.348-.007l.054.077-.03.041-.292.095z"></path><path fill="#ea1f29" d="M52.488 39.676c-.132.003-.333 0-.493-.033a3 3 0 0 1-.523-.192l-.097-.197-.033-.052a.8.8 0 0 1 .731-.292c.481.06.6.392.622.473l-.033.038zM53.055 40.58l-.125-.061c-.128-.047-.236-.09-.305-.094a1.2 1.2 0 0 1-.066-.3 1.4 1.4 0 0 1 .034-.338q.085-.066.207-.221l.02-.03.048-.077c.144-.006.461.034.528.484.077.503-.27.62-.34.638M53 40.7c.013.06.105.549-.331.774-.308.157-.563-.007-.691-.12l.015-.082a1 1 0 0 0-.015-.377c.039-.027.171-.127.316-.197.132-.06.294-.108.337-.118l.236.087z"></path><path fill="#1c5329" d="m51.993 41.272-.015.083c-.035.165-.112.188-.112.188s-.08-.046-.07-.278v-.037c.015-.185.043-.311.08-.368l.056-.027.046.06v.003a.9.9 0 0 1 .015.376M53.055 40.58c.11.06.232.134.224.145-.003.008-.14.003-.28-.023l-.133-.035-.235-.087-.087-.114.081-.041c.07.004.177.047.305.094zM52.8 39.565a1.4 1.4 0 0 1-.207.222l-.064.038-.062-.006-.003-.077.024-.066.174-.255.033-.038.024-.024c.115-.105.218-.109.218-.109s0 .084-.068.209l-.049.076z"></path><path fill="#f2bb0e" d="M52.21 40.315c.039-.152-.084-.315-.277-.364-.192-.048-.38.033-.418.184-.039.15.085.312.277.361.191.051.381-.03.418-.18"></path><path fill="#1c5329" d="m61.847 49.047-.008.135-.082.002a.53.53 0 0 1-.179-.256l-.023-.06c-.057-.176-.055-.313-.055-.313s.133.135.213.242l.034.049z"></path><path fill="#ea1f29" d="M61.112 49.913c-.097-.068-.34-.285-.196-.63a.67.67 0 0 1 .639-.415l.022.06c.05.129.12.219.18.255a2 2 0 0 1-.082.364 1.8 1.8 0 0 1-.219.36c-.059-.031-.167-.045-.344.006M62.252 50.458c-.04.053-.068.18-.082.367v.036c-.104.083-.468.334-.815.05-.359-.29-.227-.665-.166-.794l.294-.093c.081.066.217.17.345.25.132.082.308.147.424.184"></path><path fill="#1c5329" d="M61.158 50.124c-.231.034-.388-.024-.388-.024s.053-.106.335-.186l.007-.001c.178-.052.286-.037.345-.006l.055.077-.028.04-.295.094z"></path><path fill="#ea1f29" d="M62.862 49.27c-.133.004-.335 0-.494-.033a2.8 2.8 0 0 1-.52-.19l-.1-.2-.035-.05a.82.82 0 0 1 .732-.292c.482.062.602.392.623.473l-.032.04zM63.427 50.176l-.125-.06c-.126-.049-.235-.092-.305-.096a1.2 1.2 0 0 1-.062-.302 1.5 1.5 0 0 1 .028-.337 1.1 1.1 0 0 0 .21-.222l.022-.03.047-.075c.143-.007.46.033.526.482.078.504-.27.621-.34.64M63.372 50.296c.013.06.106.548-.33.772-.307.158-.564-.005-.69-.118l.013-.084a1 1 0 0 0-.011-.375 1.8 1.8 0 0 1 .315-.197c.13-.06.292-.108.335-.12l.235.09z"></path><path fill="#1c5329" d="m62.365 50.867-.014.084c-.035.163-.113.187-.113.187s-.077-.048-.068-.277v-.036c.013-.187.041-.313.081-.367l.054-.03.046.06.002.003c.025.08.03.223.012.376M63.427 50.176c.11.058.232.133.226.143a1 1 0 0 1-.28-.023l-.135-.033-.234-.089-.086-.115.08-.039c.07.004.178.047.304.095zM63.173 49.16a1.1 1.1 0 0 1-.21.222l-.06.04-.062-.007-.007-.075.028-.07.173-.252.032-.038.026-.025c.113-.105.215-.108.215-.108s.002.083-.066.207l-.048.076z"></path><path fill="#f2bb0e" d="M62.584 49.911c.04-.152-.085-.314-.277-.364s-.381.032-.42.181c-.04.152.087.315.278.365s.379-.031.419-.182"></path><path fill="#1c5329" d="m51.343 49.047-.006.135-.085.002a.54.54 0 0 1-.177-.256l-.023-.06c-.056-.176-.056-.313-.056-.313s.135.135.218.242l.032.049z"></path><path fill="#ea1f29" d="M50.607 49.913c-.095-.068-.338-.285-.195-.63a.67.67 0 0 1 .64-.415l.023.06a.54.54 0 0 0 .176.255 1.7 1.7 0 0 1-.078.364 2 2 0 0 1-.219.36c-.059-.031-.167-.045-.347.006M51.748 50.458c-.04.053-.066.18-.082.367v.036c-.104.083-.468.334-.816.05-.356-.29-.226-.665-.166-.794l.297-.093c.08.066.215.17.344.25.133.082.31.147.423.184"></path><path fill="#1c5329" d="M50.653 50.124c-.23.034-.386-.024-.386-.024s.054-.106.334-.186l.006-.001c.18-.052.288-.037.348-.006l.054.077-.027.04-.298.094z"></path><path fill="#ea1f29" d="M52.357 49.27c-.13.004-.333 0-.49-.033a3 3 0 0 1-.525-.19l-.097-.2-.032-.05a.8.8 0 0 1 .727-.292c.482.062.603.392.624.473l-.032.04zM52.925 50.176l-.127-.06c-.126-.049-.233-.092-.302-.096a1.1 1.1 0 0 1-.066-.302 1.6 1.6 0 0 1 .032-.337q.085-.065.208-.222l.021-.03.048-.075c.142-.007.459.033.528.482.076.504-.272.621-.342.64M52.87 50.296c.011.06.104.548-.33.772-.31.158-.565-.005-.69-.118l.012-.084a1 1 0 0 0-.013-.375c.037-.027.17-.128.314-.197.132-.06.295-.108.338-.12l.235.09z"></path><path fill="#1c5329" d="m51.862 50.867-.014.084c-.035.163-.113.187-.113.187s-.077-.048-.069-.277v-.036c.016-.187.042-.313.082-.367l.054-.03.046.06.001.003c.028.08.03.223.013.376M52.925 50.176c.11.058.232.133.224.143a1 1 0 0 1-.28-.023l-.133-.033-.235-.089-.088-.115.083-.039c.069.004.176.047.302.095zM52.67 49.16q-.12.157-.208.222l-.064.04-.06-.007-.008-.075.027-.07.175-.252.032-.038.025-.025c.114-.105.217-.108.217-.108s.002.083-.068.207l-.047.076z"></path><path fill="#f2bb0e" d="M52.08 49.911c.04-.152-.085-.314-.277-.364s-.38.032-.418.181c-.039.152.083.315.277.365.191.05.38-.031.418-.182"></path><path fill="#1c5329" d="m72.374 49.047-.006.135-.083.002a.53.53 0 0 1-.178-.256l-.021-.06c-.058-.176-.057-.313-.057-.313s.135.135.215.242l.034.049z"></path><path fill="#ea1f29" d="M71.638 49.913c-.094-.068-.335-.285-.194-.63a.67.67 0 0 1 .641-.415l.022.06a.5.5 0 0 0 .177.255 2 2 0 0 1-.08.364 2 2 0 0 1-.219.36c-.057-.031-.166-.045-.347.006M72.78 50.458c-.04.053-.065.18-.08.367l-.002.036c-.101.083-.466.334-.815.05-.358-.29-.228-.665-.165-.794l.296-.093c.079.066.216.17.344.25.133.082.309.147.422.184"></path><path fill="#1c5329" d="M71.684 50.124c-.229.034-.385-.024-.385-.024s.051-.106.334-.186l.005-.001c.181-.052.29-.037.348-.006l.055.077-.027.04-.296.094z"></path><path fill="#ea1f29" d="M73.391 49.27c-.132.004-.336 0-.492-.033a3 3 0 0 1-.525-.19l-.098-.2-.033-.05a.82.82 0 0 1 .731-.292c.481.062.6.392.622.473l-.032.04zM73.958 50.176l-.126-.06c-.126-.049-.236-.092-.305-.096a1 1 0 0 1-.064-.302 1.4 1.4 0 0 1 .03-.337 1.3 1.3 0 0 0 .21-.222l.022-.03.047-.075c.142-.007.459.033.528.482.075.504-.273.621-.342.64M73.902 50.296c.013.06.103.548-.332.772-.306.158-.562-.005-.69-.118l.016-.084a1 1 0 0 0-.012-.375 2 2 0 0 1 .312-.197c.133-.06.293-.108.337-.12l.236.09z"></path><path fill="#1c5329" d="m72.896 50.867-.015.084c-.034.163-.112.187-.112.187s-.08-.048-.07-.277v-.036c.015-.187.042-.313.08-.367l.057-.03.045.06.003.003c.026.08.03.223.012.376M73.958 50.176c.109.058.23.133.226.143a1 1 0 0 1-.282-.023l-.133-.033-.236-.089-.086-.115.08-.039c.069.004.179.047.305.095zM73.703 49.16a1.3 1.3 0 0 1-.208.222l-.063.04-.062-.007-.005-.075.026-.07.173-.252.033-.038.024-.025c.115-.105.218-.108.218-.108s0 .083-.067.207l-.048.076z"></path><path fill="#f2bb0e" d="M73.112 49.911c.04-.152-.084-.314-.276-.364-.193-.05-.38.032-.42.181-.038.152.087.315.279.365s.378-.031.417-.182"></path><path fill="#1c5329" d="m61.847 58.641-.008.135-.082.001c-.06-.034-.13-.124-.179-.254l-.023-.06c-.057-.177-.055-.312-.055-.312s.133.132.213.241l.034.049z"></path><path fill="#ea1f29" d="M61.112 59.507c-.097-.068-.34-.286-.196-.63a.67.67 0 0 1 .639-.415l.022.061c.05.13.12.22.18.253-.019.118-.046.27-.082.365a1.8 1.8 0 0 1-.219.36c-.059-.03-.167-.045-.344.006M62.252 60.051c-.04.055-.068.182-.082.368v.037c-.104.082-.468.334-.815.05-.359-.29-.227-.664-.166-.793l.294-.093c.081.064.217.168.345.247.132.083.308.147.424.184"></path><path fill="#1c5329" d="M61.158 59.718a.9.9 0 0 1-.388-.022s.053-.107.335-.187l.007-.002c.178-.051.286-.037.345-.006l.055.079-.028.04-.295.093z"></path><path fill="#ea1f29" d="M62.862 58.864a2.3 2.3 0 0 1-.494-.034 3 3 0 0 1-.52-.189l-.1-.2-.035-.05a.81.81 0 0 1 .732-.29c.482.06.602.391.623.472l-.032.037zM63.427 59.77l-.125-.06a1.4 1.4 0 0 0-.305-.095 1.2 1.2 0 0 1-.062-.301c-.008-.118.012-.25.028-.337a1.2 1.2 0 0 0 .21-.222l.022-.03.047-.078c.143-.006.46.036.526.484.078.504-.27.62-.34.639M63.372 59.891c.013.06.106.548-.33.772-.307.156-.564-.005-.69-.118l.013-.084a1 1 0 0 0-.011-.375c.034-.027.168-.129.315-.197a2 2 0 0 1 .335-.12l.235.09z"></path><path fill="#1c5329" d="m62.365 60.462-.014.083c-.035.164-.113.188-.113.188s-.077-.047-.068-.277v-.036c.013-.187.041-.314.081-.369l.054-.028.046.06.002.003c.025.08.03.223.012.376M63.427 59.77c.11.059.232.133.226.144a1 1 0 0 1-.28-.023l-.135-.033-.234-.09-.086-.113.08-.04c.07.006.178.047.304.095zM63.173 58.755q-.12.155-.21.221l-.06.04-.062-.007-.007-.076.028-.068.173-.254.032-.037.026-.025c.113-.105.215-.11.215-.11s.002.085-.066.208l-.048.078z"></path><path fill="#f2bb0e" d="M62.584 59.504c.04-.15-.085-.313-.277-.363s-.381.031-.42.183c-.04.15.087.313.278.363s.379-.033.419-.183"></path><path fill="#1c5329" d="m51.343 58.641-.006.135-.085.001a.5.5 0 0 1-.177-.254l-.023-.06c-.056-.177-.056-.312-.056-.312s.135.132.218.241l.032.049z"></path><path fill="#ea1f29" d="M50.607 59.507c-.095-.068-.338-.286-.195-.63a.67.67 0 0 1 .64-.415l.023.061c.047.13.121.22.176.253-.014.118-.042.27-.078.365a2 2 0 0 1-.219.36c-.059-.03-.167-.045-.347.006M51.748 60.051c-.04.055-.066.182-.082.368v.037c-.104.082-.468.334-.816.05-.356-.29-.226-.664-.166-.793l.297-.093c.08.064.215.168.344.247.133.083.31.147.423.184"></path><path fill="#1c5329" d="M50.653 59.718c-.23.034-.386-.022-.386-.022s.054-.107.334-.187l.006-.002c.18-.051.288-.037.348-.006l.054.079-.027.04-.298.093z"></path><path fill="#ea1f29" d="M52.357 58.864a2.2 2.2 0 0 1-.49-.034 3 3 0 0 1-.525-.189l-.097-.2-.032-.05a.8.8 0 0 1 .727-.29c.482.06.603.391.624.472l-.032.037zM52.925 59.77l-.127-.06c-.126-.048-.233-.09-.302-.095a1.1 1.1 0 0 1-.066-.301c-.005-.118.015-.25.032-.337q.085-.066.208-.222l.021-.03.048-.078c.142-.006.459.036.528.484.076.504-.272.62-.342.639M52.87 59.891c.011.06.104.548-.33.772-.31.156-.565-.005-.69-.118l.012-.084a1 1 0 0 0-.013-.375c.037-.027.17-.129.314-.197.132-.06.295-.109.338-.12l.235.09z"></path><path fill="#1c5329" d="m51.862 60.462-.014.083c-.035.164-.113.188-.113.188s-.077-.047-.069-.277v-.036c.016-.187.042-.314.082-.369l.054-.028.046.06.001.003c.028.08.03.223.013.376M52.925 59.77c.11.059.232.133.224.144a1 1 0 0 1-.28-.023l-.133-.033-.235-.09-.088-.113.083-.04c.069.006.176.047.302.095zM52.67 58.755a1.3 1.3 0 0 1-.208.221l-.064.04-.06-.007-.008-.076.027-.068.175-.254.032-.037.025-.025c.114-.105.217-.11.217-.11s.002.085-.068.208l-.047.078z"></path><path fill="#f2bb0e" d="M52.08 59.504c.04-.15-.085-.313-.277-.363s-.38.031-.418.183c-.039.15.083.313.277.363.191.05.38-.033.418-.183"></path><path fill="#1c5329" d="m72.374 58.641-.006.135-.083.001a.5.5 0 0 1-.178-.254l-.021-.06c-.058-.177-.057-.312-.057-.312s.135.132.215.241l.034.049z"></path><path fill="#ea1f29" d="M71.638 59.507c-.094-.068-.335-.286-.194-.63a.67.67 0 0 1 .641-.415l.022.061c.047.13.12.22.177.253-.017.118-.044.27-.08.365a2 2 0 0 1-.219.36c-.057-.03-.166-.045-.347.006M72.78 60.051c-.04.055-.065.182-.08.368l-.002.037c-.101.082-.466.334-.815.05-.358-.29-.228-.664-.165-.793l.296-.093c.079.064.216.168.344.247.133.083.309.147.422.184"></path><path fill="#1c5329" d="M71.684 59.718c-.229.034-.385-.022-.385-.022s.051-.107.334-.187l.005-.002c.181-.051.29-.037.348-.006l.055.079-.027.04-.296.093z"></path><path fill="#ea1f29" d="M73.391 58.864a2.2 2.2 0 0 1-.492-.034 3 3 0 0 1-.525-.189l-.098-.2-.033-.05a.81.81 0 0 1 .731-.29c.481.06.6.391.622.472l-.032.037zM73.958 59.77l-.126-.06a1.4 1.4 0 0 0-.305-.095 1 1 0 0 1-.064-.301c-.006-.118.013-.25.03-.337q.087-.066.21-.222l.022-.03.047-.078c.142-.006.459.036.528.484.075.504-.273.62-.342.639M73.902 59.891c.013.06.103.548-.332.772-.306.156-.562-.005-.69-.118l.016-.084a1 1 0 0 0-.012-.375c.035-.027.166-.129.312-.197.133-.06.293-.109.337-.12l.236.09z"></path><path fill="#1c5329" d="m72.896 60.462-.015.083c-.034.164-.112.188-.112.188s-.08-.047-.07-.277v-.036c.015-.187.042-.314.08-.369l.057-.028.045.06.003.003a1 1 0 0 1 .012.376M73.958 59.77c.109.059.23.133.226.144a1 1 0 0 1-.282-.023l-.133-.033-.236-.09-.086-.113.08-.04c.069.006.179.047.305.095zM73.703 58.755a1.4 1.4 0 0 1-.208.221l-.063.04-.062-.007-.005-.076.026-.068.173-.254.033-.037.024-.025c.115-.105.218-.11.218-.11s0 .085-.067.208l-.048.078z"></path><path fill="#f2bb0e" d="M73.112 59.504c.04-.15-.084-.313-.276-.363-.193-.05-.38.031-.42.183-.038.15.087.313.279.363s.378-.033.417-.183"></path><path fill="#1c5329" d="m61.847 31.281-.008.135h-.082a.5.5 0 0 1-.179-.255l-.023-.06c-.057-.176-.055-.31-.055-.31s.133.131.213.241l.034.05z"></path><path fill="#ea1f29" d="M61.112 32.147c-.097-.068-.34-.284-.196-.63a.67.67 0 0 1 .639-.415l.022.06c.05.132.12.22.18.254a2 2 0 0 1-.082.364 2 2 0 0 1-.219.362c-.059-.033-.167-.046-.344.004M62.252 32.69q-.06.087-.082.37v.035c-.104.084-.468.334-.815.05-.359-.291-.227-.661-.166-.792l.294-.093c.081.066.217.169.345.248.132.08.308.147.424.183"></path><path fill="#1c5329" d="M61.158 32.358a.9.9 0 0 1-.388-.022s.053-.107.335-.189h.007c.178-.05.286-.037.345-.006l.055.077-.028.042-.295.093z"></path><path fill="#ea1f29" d="M62.862 31.504c-.133.004-.335 0-.494-.034a2.7 2.7 0 0 1-.52-.189l-.1-.2-.035-.049a.82.82 0 0 1 .732-.293c.482.062.602.393.623.473l-.032.04zM63.427 32.41l-.125-.059a1.3 1.3 0 0 0-.305-.097 1.2 1.2 0 0 1-.062-.3 1.4 1.4 0 0 1 .028-.338q.09-.066.21-.22l.022-.032.047-.077c.143-.005.46.035.526.484.078.503-.27.62-.34.638M63.372 32.53c.013.06.106.55-.33.774-.307.155-.564-.007-.69-.12l.013-.084a1 1 0 0 0-.011-.375c.034-.029.168-.129.315-.196.13-.063.292-.11.335-.12l.235.088z"></path><path fill="#1c5329" d="m62.365 33.101-.014.082c-.035.165-.113.188-.113.188s-.077-.046-.068-.276v-.035c.013-.187.041-.314.081-.369l.054-.029.046.061.002.002c.025.081.03.222.012.376M63.427 32.41c.11.06.232.134.226.144a1 1 0 0 1-.28-.024l-.135-.033-.234-.089-.086-.114.08-.04c.07.005.178.047.304.097zM63.173 31.395q-.12.155-.21.221l-.06.038-.062-.005-.007-.076.028-.069.173-.253.032-.039.026-.023c.113-.104.215-.109.215-.109s.002.084-.066.207l-.048.077z"></path><path fill="#f2bb0e" d="M62.584 32.144c.04-.15-.085-.313-.277-.365-.192-.047-.381.033-.42.184-.04.151.087.314.278.363.192.05.379-.031.419-.182"></path><path fill="#2b57ac" d="M71.183 38.212s.41.577-1.026 1.156c-1.063.428-2.527.338-3.459.467-.78.11-.867.285-.823.48.093.431.822.147 1.277-.097.493-.265 1.371-.352 2.011.241.228.214.549.29.549.29s-.379.24-.689.025c-.128-.087-.23-.177-.49-.198-.457-.034-.542.112-.542.112s.233-.157.806.136c.744.38.297 1.213.297 1.213s.049-.298-.265-.503c-.438-.289-.806-.025-.806-.025s.17-.085.43.013c.326.126.433.295.323.516-.048.094-.201.207-.201.207s.358-.472-1.055-.373c-.714.05-.962-.67-.962-.67s-.327.082-.557.005a.8.8 0 0 1-.058.411c-.075-.373-.36-.61-.49-.77-.131-.159-.414-.574-.058-1.062.352-.41.993-.47 1.398-.503.602-.045 1.598-.099 2.477-.22 1.189-.164.983-.734.837-.91-.15-.183-.434-.192-1.261.096-.825.29-1.688.805-3.414.737-2.38-.092-4.073-1.833-4.944-1.739 0 0 .046-.209.027-.35-.077-.604-.626-.93-.626-.93l-.077.118c-.056-.008-.004-.132-.199-.277-.187-.14-.283-.295-.351-.575 0 0-.097.193-.155.021-.076-.223-.193-.23-.254-.257l-.054.111c-.077-.004-.106-.483-.938-.404l-.062-.015c-.61-.105-.716.495-.933.704-.141.136-.313-.11-.313-.11s-.117.126-.102.36c.016.244.061.326-.037.495-.075.127-.393.397-.274.856-.145.003-.435.11-.553.962l.102-.012c-.021.13-.135.178-.158.328-.032.22-.06.646.06.796.184.23.692.308.45.757l-.079-.125-.119-.05-.152.163.084.146.007.01a.44.44 0 0 1-.217-.045c.011.098.175.614-.262.731l-.03-.205-.096-.088-.199.1.032.168.018.066c-.422-.052-.336-.6-.33-.686-.011.124-.267.472-.514.315l-.025-.02.081-.084.024-.127-.188-.118-.128.111-.011.014c-.088-.115-.075-.32.162-.5.351-.266.47-1.344.416-1.485-.074-.192-.262.081-.262.081s-.032-.248.145-.5c.313-.448.407-.645.173-.57l-.146.093s.014-.223.299-.456c.113-.092.097-.144.015-.135-.094.013-.165.072-.165.072s.078-.204.222-.398c.242-.324.461-.459.461-.459s-.272.025-.665.251c-.586.341-.339.58-.515.985-.166.387-.275.45-.449.473h-.016l.023-.085-.034-.126-.221-.022-.063.158c-.165-.084-.16-.26-.145-.342-.113.124-.327.296-.475.321a.5.5 0 0 1-.298-.059l-.015-.004.031-.022.061-.114-.148-.167-.154.071-.021.015c-.103-.185-.071-.534.534-.73 0 0-.292-.045-.384-.258l.202-.032.087-.098-.104-.196-.167.03-.027.011c.069-.305.316-.349.524-.349.903.012 1.605-.423 1.605-.423s-.197-.01-.305-.15c-.112-.147-.086-.23-.086-.23s.079.073.306.112c.239.041.286-.045.286-.045s-.348-.128-.213-.49c0 0 .14.153.357.23.18.06.388.048.471-.069.113-.164-.37-.324-.37-.324.337-.2 1.073-.104 1.073-.104s-.515-.092-.511-.428c0 0 .32.245.948 0 .951-.368 2.116-.545 3.64.073 1.92.78 1.972 2.438 4.643 3.321.087-.129.688-.692 1.441-.97.605-.227 1.459-.378 1.72-.439.376-.092 1.042-.234.643-.96-.19-.338-.364-.44-.526-.563a6 6 0 0 0-.514.164c-.167.062-.289.025-.342-.09l.127-.022.081-.085-.086-.182-.149.024-.012.003c.02-.204.191-.226.191-.226s-.197-.074-.195-.259l.103.027.112-.034.009-.2-.145-.05.017-.013c.117-.147.457-.037.457-.037s-.079-.176.028-.3l.072.134.107.048.143-.14-.071-.136-.018-.022.059-.006c.165.024.4.175.51.532.135.41.268.498.268.498s.346.326.214-.255c.342.09.3.465.3.465l.358-.06c.115.091.003.362.135.553.147.211.231-.034.177-.205 0 0 .21.065.22.337.011.175-.06.38.106.531.124.105.155-.047.119-.19 0 0 .163-.007.191.278.016.172-.025.225.026.248l.106-.14s.145.326-.154.522c-.502.327-1.778.103-2.54 1.304-.277.441-.072.643-.072.643s1.358-.64 2.089-.535c.886.127.89.602.89.602s.145-.027.019-.315c0 0 .161.035.228.257.127.426-.141.69-.141.69.215.015.22-.242.22-.242"></path><path fill="#ea1f29" d="m52.488 35.863.104.196-.088.098-.202.032h-.025c-.274-.037-.35-.239-.392-.347 0 0 .17.143.408.062l.027-.01zM52.328 37.091l.149.168-.063.113-.03.022-.183.062c-.274.033-.395-.145-.462-.238 0 0 .2.098.414-.041l.02-.015zM53.38 37.32l.221.023.034.126-.023.084-.076.122c-.177.212-.386.165-.502.139 0 0 .232-.067.283-.336zM55.69 39.813l.153-.163.12.05.079.125.025.08c.058.27-.107.408-.198.482 0 0 .086-.215-.087-.418l-.006-.01zM54.978 40.462l.199-.1.096.088.03.205-.002.02c-.035.274-.238.35-.345.39 0 0 .128-.15.073-.369l-.02-.066zM54.076 39.976l.189.119-.026.126-.08.085-.101.059c-.253.107-.42-.03-.512-.1 0 0 .227.04.391-.163l.011-.014zM67.205 33.882l.087.182-.081.084-.126.023-.08-.005c-.244-.04-.306-.222-.34-.321 0 0 .155.139.38.063l.012-.003zM67.256 33.416l-.112.035-.102-.028-.087-.051c-.197-.15-.166-.34-.147-.444 0 0 .07.205.312.237l.145.05zM67.943 32.858l-.142.14-.107-.047-.072-.136-.014-.053c-.042-.242.111-.362.195-.427 0 0-.079.183.051.366l.02.022z"></path><path fill="#2b57ac" d="M67.287 35.476c-1.548.295-1.869.49-2.498 1.096-.064-.031-.309-.468.35-1.096.258-.247.511-.321.511-.321s-.454.08-1.038.024c-.273.076-.472.424-.837.565q-.181.067-.302.006l.107-.07.044-.11-.145-.133-.132.075-.033.029c-.02-.1.01-.217.131-.34-.166.006-.329-.082-.37-.274l.156.032.104-.051-.018-.2-.148-.028-.078-.01.01-.02c.115-.343.64-.09.64-.09s-.268-.195-.122-.43l.06.094.106.049.143-.141-.072-.134-.033-.048c.366-.141.661.414.661.43-.013-.401.304-.493.304-.493s-.044.174.12.286c.186.125.465.092.49.094-.052-.203.024-.296.136-.331.028.428.827.442.827.442.046-.166.227-.223.227-.223s-.008.232.161.36c.173.134.46.14.763.309.358.198.284.583-.225.652"></path><path fill="#ea1f29" d="m63.928 34.132-.144.141-.105-.05-.06-.093-.026-.094c-.043-.244.11-.363.192-.427 0 0-.07.166.038.341l.033.047zM63.317 34.709l.018.2-.104.05-.156-.031-.044-.022c-.215-.122-.21-.315-.209-.42 0 0 .08.152.27.185l.077.009zM63.479 35.436l.146.135-.044.11-.107.068-.076.025c-.242.052-.367-.096-.436-.175 0 0 .178.07.353-.059l.033-.029z"></path><path fill="#2b57ac" d="m59.589 38.477-.01-.021c-.012-.035-.137-.311-.415-.34l-.017-.003c-.178-.015-.35.106-.35.106s-.028.01-.052-.201c-.017-.171-.122-.175-.122-.175s-.026.25.033.433c.076.23.289.223.289.223h.004l-.031-.111a.185.185 0 0 1 .195-.165.18.18 0 0 1 .165.196l-.026.077h.323l.022.003zm-.99-1.675c-.216-.185-.178-.467-.224-.662-.06-.235-.272-.35-.508-.301-.204.033-.397.155-.413.37-.018.247.389.57.129.877-.212.254-.2.372-.2.372s.056-.08.195-.152c.05-.024.465-.218.547.1l-.093.166-.097.07-.012.16s.114-.15.316-.184c.207-.033.384.059.384.059s.046-.144-.12-.166c-.09-.012-.221-.018-.238-.13-.052-.371.484-.29.645-.266.129.023.19.04.19.04-.108-.156-.303-.184-.5-.353m-1.27 2.088v.046l.02-.012.297-.123-.055-.061a.18.18 0 0 1 .08-.244l.242.078.014.113h.002s.202-.076.183-.318c-.015-.19-.135-.412-.135-.412s-.098.044-.047.208c.06.205.029.206.029.206s-.204-.046-.362.036l-.016.01c-.235.156-.244.457-.242.494m3.278-.407c.067.558-.32.518-.32.518s.152.11.206.309c.09.344-.112.797-.112.797s-.212-.375-.462-.11c0 0 .14.15.116.485-.027-.095-.805-.685-1.026.37-.44-.096-.401-.525-.673-.491-.145.016-.29.132-.18.408 0 0-.398-.02-.456-.434-.073-.512-.323.172-.662.147-.004 0-.252-.27-.237-.842-.307-.012-.445-.253-.475-.636-.084-1.09-.372-.73-.368-.751.095-.67.47-.316.47-.316-.064-.466-.485-.211-.485-.211.123-.714.422-.48.422-.48-.136-.595.09-.75.172-.865.103-.145.15-.204.113-.46-.035-.23-.02-.312-.02-.312s.179.182.309.046c.2-.21.319-.844.774-.764 0 0-.055.277.044.277l.125-.243c.123-.015.469-.066.659.178.114.147.143.354.262.345.09-.008.1-.18.1-.18.08.05.097.095.134.294.045.246.169-.015.169-.015a.67.67 0 0 0 .296.452c.215.136.153.51.279.602.138.1.17-.3.17-.3s.468.36.305.982c-.073.278-.152.513-.063.537.085.02.068-.248.253-.356.129-.077.33.033.33.033-.238.263-.201.713-.17.986"></path><path fill="#ea1f29" d="M57.82 35.971c.46-.119.467.36.473.45.031.487.366.527.423.58-.156-.03-.472-.02-.573.164a.57.57 0 0 0-.5.001l.118-.199c.043-.12.005-.263-.043-.376-.045-.109-.317-.512.102-.62"></path><path fill="#2b57ac" d="M69.98 44.109c-3.715.124-4.653 1.18-4.653 1.18s-.425-.704 1.28-1.45c0 0-.578.096-.898.109-.38.02-.783-.054-.783-.054s-.429.39-.73.5c-.098.035-.258.08-.399-.004l.117-.07.054-.116-.156-.155-.147.079-.049.037c-.076-.205.06-.344.15-.4-.43-.093-.558-.202-.562-.422l.138.035.121-.045-.002-.22-.16-.046-.035-.006c.09-.155.284-.235.556-.143.125.042.157.063.157.063s-.236-.268-.136-.524l.083.09.123.03.126-.181-.105-.13-.034-.03.111-.038c.238-.068.436.133.598.33.326.396.647.276.647.276-.219-.217-.016-.48-.016-.48s.18.42.473.303c-.058-.256.197-.4.197-.4s.153.41.351.41c.262 0 .13-.395.13-.395s.141.017.366.242c.148.147.274.309.578.286a.54.54 0 0 1 .304-.46c-.006.982 1.38 1.114 1.61 1.159.663.13.594.64.594.64"></path><path fill="#ea1f29" d="m63.812 44.049.155.155-.052.116-.118.07-.087.027c-.267.048-.399-.12-.472-.211 0 0 .188.079.378-.041l.05-.037zM63.462 43.113v.22l-.12.045-.137-.035-.073-.04c-.225-.154-.202-.364-.19-.479 0 0 .083.2.324.236l.037.006zM64.175 42.395l-.125.183-.125-.033-.082-.089-.049-.093c-.095-.254.046-.416.121-.499 0 0-.046.205.12.372l.035.03zM57.059 45.38c.512-.178.565.365.581.468.078.551.464.565.534.621-.181-.02-.541.02-.639.24-.127-.058-.335-.079-.568.043l.117-.234c.039-.142-.019-.3-.082-.426-.063-.116-.408-.55.057-.712"></path><path fill="#2b57ac" d="m59.3 48.066-.012-.02c-.018-.039-.184-.34-.503-.35l-.021-.002c-.203 0-.39.151-.39.151s-.03.015-.076-.223c-.035-.193-.156-.188-.156-.188s-.007.287.077.49c.107.255.352.227.352.227h.004l-.046-.122c0-.114.094-.205.205-.205.116 0 .208.091.208.205l-.025.09.37-.027h.025zm-1.278-1.813c-.264-.193-.246-.515-.317-.732-.088-.262-.34-.372-.603-.297-.23.056-.438.213-.437.46.002.28.495.613.228.986-.22.306-.195.44-.195.44s.058-.095.21-.19c.054-.032.508-.293.628.063.032.091-.032.15-.091.198l-.101.088v.182s.118-.18.342-.236c.234-.058.443.03.443.03s.04-.168-.15-.178c-.105-.004-.256 0-.285-.123-.092-.42.524-.375.71-.362.15.012.22.027.22.027-.14-.169-.364-.183-.602-.356m-1.253 2.49v.026l.005.027.02-.013.329-.169-.068-.066a.207.207 0 0 1 .068-.285.207.207 0 0 1 .282.067l.026.13.003-.002s.223-.107.176-.38c-.032-.214-.191-.456-.191-.456s-.104.06-.032.24c.086.226.05.232.05.232s-.234-.03-.407.076l-.018.012c-.265.175-.247.52-.243.561m3.748-.008c.156.38-.034 1.07-.034 1.07s-.31-.49-.573-.227c-.242.243.016.632.016.632-.3.097-.55-.312-.92-.109-.26.141.045.61.045.61s-.337.01-.605-.12c-.261-.128-.378-.233-.56-.228-.247.01-.16.417-.16.417s-.294.008-.47-.296c-.173-.3-.365-.379-.365-.379-.08.13-.256.131-.391.17-.15.042-.252.112-.252.112s-.274-.529-.15-.967c-.206-.056-.263-.287-.296-.402-.24-.873-.6-.483-.597-.51.069-.77.514-.747.475-.926-.054-.242-.466.09-.466.09.01-.543.253-.578.353-.9.085-.28-.091-.469.052-.899.146-.445.039-.608.039-.608a.7.7 0 0 1 .498.212c-.06-.57.208-.84.208-.84s.169.348.239.116c.19-.619.502-.84.502-.84s.28.01.777.533c.346.365.19-.106.19-.106s.243-.022.745.9c.162.298.432.47.528-.013.575.62.375 1.29.375 1.524 0 .21.102.233.11.138.06-.57.659-.377.659-.377s-.244.248.007 1.121c.124.436-.118.858-.118.858z"></path><path fill="#2b57ac" d="M74.375 44.516s.034.53-.351.667c-.502.183-1.152-.054-2.442.066-3.135.294-2.75 1.425-2.75 1.425s1.972-.874 2.806-.466c.46.226.429.624.429.624.129-.15-.011-.45-.011-.45s.809.593-.152 1.52c-.35.334-.987.582-1.465.644-1.38.18-1.906.105-2.878.24-.813.113-.997.4-.955.628.124.673 1.64-.284 2.473.086.222.101.406.253.599.302.202.046.404-.017.404-.017s-.196.354-.84.218c-.528-.112-.568.066-.568.066s.248-.02.569.167c.206.12.263.382.488.48.277.12.556.007.556.007s-.361.615-1.057.255c-.474-.308-.645-.08-.645-.08l.569.402c.175.352.4.407.4.407s-.356.17-.657-.125c-.195-.19-.48-.246-.966-.238-.617.008-.865-.726-.865-.726s-.245-.015-.456-.123c-.186-.093-.4-.3-.4-.3l.08.237s-.46-.227-.471-.93c-.022-1.187 1.266-1.284 1.688-1.317.627-.049 1.822-.08 2.738-.206 1.24-.17 1.274-.742 1.11-1.008-.18-.297-.692-.145-1.552.157-.861.301-1.59.802-3.332.746-2.75-.088-5.66-2.048-6.502-1.547.042-.319-.033-.976-.756-1.56-.027.49-.177.424-.343.13-.46-.83-.94-.913-.94-.913s.088.282-.221.011c-.313-.277-.672-.32-.672-.32s-.44.314-.542.807l-.09-.155c-.366.177-.451.76-.451.76s-.176-.114-.578-.048c0 0 .226.247-.03.894-.503 0-2.497.347-2.747 1.377-.092.384-.207.568-.45.584l.052-.073.009-.138-.215-.098-.118.136-.038.056c-.196-.154-.135-.474-.135-.474-.224.187-.685.501-.956.308l.13-.079.062-.136a.176.176 0 0 0-.181-.176l-.168.09-.078.054c-.238-.387.536-.806.536-.806-.293.017-.712-.215-.703-.48l.133.043.129-.04.016-.234-.166-.066-.031-.004c.076-.16.212-.265.592-.16.915.26 1.539.092 1.539.092s-.028-.305-.444-.224c-.02.003.162-.238.535-.238.49 0 .75.196.76.2 0 0 .025-.115-.115-.185-.296-.15-.104-.475-.104-.475.16.361.456.221.456.221a.34.34 0 0 1 .054-.443s.019.208.346.291c.225.057.419-.024.419-.024s-.19-.267.038-.57c0 0 .096.436.398.307.126-.053.11-.192.074-.249l-.195-.11c.47-.226.59.145.954-.192-.467-.212-1.051-.256-1.59-.227-1.133.098-1.37.32-1.635.564-.363.348-.651.384-.824.331l.059-.042.06-.135c0-.1-.078-.178-.176-.178l-.171.092-.041.03c-.1-.174.085-.328.14-.404l-.21.041c-.24.052-.442-.035-.501-.215l.19-.013.114-.095-.085-.237-.191.01-.067.011c.07-.307.426-.345.696-.356-.13-.079-.267-.195-.238-.378l.13.08.129-.01.064-.215-.144-.092-.045-.02c.219-.236.757.071.906.157.429.242.799.201 1.01.095.402-.198-.14-.363-.14-.363.134-.107.347-.057.478 0 .12.054.236.145.294.063.032-.05.015-.142-.076-.223l-.172-.08c.5-.193.964.267.964.267s.038-.063-.007-.182c-.075-.195-.261-.265-.261-.265.542-.164.819.481.819.481s.258-.198-.061-.48c.445-.014.502.35.722.21.128-.083.06-.265-.126-.302.514-.175.47.283 1.067.183.87-.15 1.874-.279 3.406.314 2.353.902 2.594 2.976 5.17 3.264 0 0 .218-.452 1.983-.928 1.869-.503 4.743-.116 4.614-1.005-.066-.453-1.345.198-1.507-.253l-.006-.024.144.003.106-.07-.052-.216-.167-.009-.02.003c.052-.098.154-.15.262-.17-.155-.082-.245-.143-.256-.346v-.058l.093.051.128-.008.066-.209-.14-.094-.018-.008a.36.36 0 0 1 .354-.09.54.54 0 0 1 .227.122c-.043-.072-.128-.24-.085-.376l.07-.12.056.143.11.07.175-.134-.058-.156-.013-.022c.329-.012.62.426.677.807.073.486.225.413.225.413l.09-.186.196-.093c-.014.33.23.432.337.34.104-.092.018-.292.018-.292s.167-.058.365.278c.11.178.102.408.233.422.178.006.107-.216.107-.216.413.222.155.881.316.956.127.033.077-.207.077-.207s.26.14.185.424c-.113.42.092.075.092.075"></path><g fill="#ea1f29"><path d="m50.624 45.847-.016.233-.13.041-.132-.043-.091-.055c-.226-.18-.184-.404-.162-.525 0 0 .073.222.333.278l.032.006zM50.76 47.22c.1 0 .18.077.18.176l-.062.136-.13.08-.105.03c-.308.056-.459-.135-.54-.239 0 0 .197.084.41-.039l.077-.054zM51.995 47.586l.215.098-.01.137-.05.074-.12.1c-.251.15-.445.03-.551-.032 0 0 .215.008.36-.186l.038-.055zM51.587 42.672l-.065.215-.128.009-.13-.08-.053-.055c-.176-.216-.091-.413-.045-.52 0 0 .02.208.232.318l.045.02zM51.627 44.33c.098 0 .177.079.177.18l-.06.134-.06.043-.176.067c-.307.056-.459-.136-.54-.24 0 0 .224.094.447-.061l.041-.03zM51.064 43.53a.18.18 0 0 1 .085.238l-.113.095-.191.012-.07-.012c-.301-.082-.355-.319-.383-.45 0 0 .154.174.414.139l.066-.012zM70.673 43.207l.051.213-.106.072-.143-.003-.082-.021c-.254-.1-.278-.311-.29-.425 0 0 .13.183.382.157l.02-.002zM70.778 42.46l-.065.21-.128.008-.093-.051-.088-.086c-.169-.215-.08-.41-.034-.513 0 0 .02.226.251.33l.018.009zM71.528 41.974l-.175.133-.11-.07-.055-.142-.01-.073c-.012-.271.172-.38.269-.436 0 0-.113.189.01.409l.013.023zM50.654 56.767a.18.18 0 0 1 .217.13l-.028.146-.04.05-.165.112c-.285.128-.478-.024-.581-.105 0 0 .269.044.454-.205l.006-.01z"></path></g><path fill="#2b57ac" d="M69.76 53.281c-3.237.096-4.307 1.27-4.307 1.27s-.546-.83.797-1.375c0 0-.25.07-.569.096-.378.032-.543.035-.543.035s-.285.433-.787.518c-.137.023-.273.03-.39.013l.022-.02.044-.12-.169-.142-.139.09-.062.05-.017-.017a.36.36 0 0 1-.046-.392c-.46-.062-.612-.207-.649-.395l.226.016.103-.075-.06-.214h-.168l-.1.008c.044-.244.336-.419.8-.225.114.047-.285-.14-.128-.548l.035.078.105.074.182-.128-.053-.156-.045-.116h.001c.394-.173.808.301.86.523 0 0 .038-.285.21-.406.003 0 .025.121.118.22.171.186.153-.036.153-.036 0-.34.215-.396.215-.396s-.033.391.27.454c.123-.42.585.222.538.03-.105-.426.083-.555.083-.555s.04.51 1.06.568a.54.54 0 0 1 .287-.47c.072.983 1.466.992 1.696 1.03.667.107.427.713.427.713"></path><path fill="#ea1f29" d="m63.858 53.555.17.143-.045.12-.023.02-.174.092c-.263.07-.408-.086-.485-.17 0 0 .18.06.356-.065l.062-.05zM63.047 52.62h.166l.06.214-.101.075-.227-.016c-.257-.087-.291-.296-.308-.41 0 0 .107.14.308.145zM63.94 51.879l-.182.127-.105-.074-.034-.077-.025-.142c0-.271.188-.372.29-.424 0 0-.09.137-.043.318l.045.116z"></path><path fill="#2b57ac" d="m59.151 57.29-.012-.023c-.018-.038-.18-.342-.497-.357l-.022-.003c-.202-.003-.392.146-.392.146s-.029.015-.072-.226c-.03-.19-.152-.188-.152-.188s-.013.288.07.49c.101.257.346.232.346.232h.002l-.04-.122a.206.206 0 1 1 .411.007l-.024.09.37-.022h.023zm-1.248-1.834c-.263-.197-.238-.52-.306-.736-.083-.265-.335-.382-.6-.309-.23.054-.438.207-.443.451-.003.281.485.622.211.992-.21.324-.189.46-.189.46s.058-.095.211-.187c.058-.033.515-.284.63.073.03.09-.035.15-.092.196l-.105.087-.003.182s.121-.179.345-.23c.235-.054.441.038.441.038s.044-.169-.147-.183c-.103-.005-.254-.003-.282-.128-.085-.42.532-.366.718-.348.147.014.216.03.216.03-.134-.17-.357-.189-.593-.365m-1.295 2.467.001.028.002.026.022-.014.331-.163-.068-.067a.21.21 0 0 1 .072-.282.207.207 0 0 1 .282.072l.026.127h.002s.224-.103.184-.377c-.03-.215-.184-.46-.184-.46s-.108.058-.037.241c.082.228.048.231.048.231s-.237-.034-.41.07l-.017.012c-.27.172-.259.517-.254.556m3.656-.604c.113.53-.303.54-.303.54s.178.12.247.343c.118.394-.097.92-.097.92s-.14-.39-.574-.203c0 0 .214.253.045.72a.53.53 0 0 0-.249-.293c-.22-.129-.475-.1-.57.06-.082.142-.014.338.151.472-.062.017-.335.085-.585.013-.266-.078-.67-.346-.67-.346s-.275.215-.138.528c0 0-.415.043-.555-.437a.3.3 0 0 0-.237-.229s-.032.334-.333.427a1.43 1.43 0 0 1-.555-1.14c-.203-.062-.286-.298-.306-.418-.255-1.524-.649-.8-.644-.827.085-.768.608-.658.608-.658-.092-.534-.646-.25-.646-.25.203-.778.671-.453.671-.453-.332-.57-.08-1.01.097-1.449.187-.406.181-.749.181-.749s.223.118.344.117c.17-.003.115-.185.12-.416.007-.325.138-.42.138-.42l.074.143c.086.133.134.116.134.116s-.045-.408.222-.61c0 0 .375.545.582.506.137-.025.221-.357.221-.357 1.082.685 1.228 2.182 1.431 1.65.055-.13.061-.256.061-.256s.66.393.59 1.85c0 0 .118-.118.323-.174.203-.057.32.007.32.007s-.29.391-.098 1.273"></path><path fill="#ea1f29" d="M56.954 54.567c.516-.169.56.375.572.476.07.553.456.574.525.631-.181-.024-.54.01-.643.228-.122-.06-.333-.084-.57.036l.123-.232c.04-.143-.014-.302-.077-.428-.06-.118-.398-.556.07-.71M50.604 55.364l-.013.236-.131.04-.19-.075-.034-.022c-.226-.18-.184-.405-.163-.524 0 0 .066.197.293.266l.072.018zM51.967 57.183l.23.06.012.138-.015.04-.121.16c-.225.188-.435.105-.551.061 0 0 .232-.031.337-.275l.014-.031zM51.589 53.926l.227.06.015.138-.06.113-.078.085c-.224.192-.434.107-.55.062 0 0 .252-.03.352-.305l.01-.03zM50.869 53.061a.18.18 0 0 1 .107.23l-.104.104-.22.028-.038-.005c-.307-.052-.386-.284-.426-.409 0 0 .16.147.4.103l.09-.023zM51.584 52.296l-.145.034-.174-.076-.056-.045c-.231-.211-.17-.448-.137-.575 0 0 .067.263.37.333h.007l.168.078z"></path><path fill="#2b57ac" d="M73.861 54.4c-.225.108-.587.062-1.02.016-.34-.035-.725-.072-1.114-.032-2.617.262-2.828 1.224-2.723 1.159 0 0 .563-.286 1.42-.453 2.331-.454 2.35.824 2.35.824s.078-.057.101-.198c.024-.164-.087-.387-.087-.387s.292.217.292.54c0 .486-.317.656-.317.656s.065.007.181-.094c.117-.1.184-.347.184-.347s.123.404-.326.779c-1.252 1.047-3.959.84-5 .99-.915.13-1.154.507-1.087.895.111.637.965.653.965.653-.046-.694.817-1.15 1.637-.967.458.102.735.258 1.06.52.245.196.44.287.44.287-.423.08-.692-.086-.86-.157a1.9 1.9 0 0 0-.568-.15c-.51-.042-.559.298-.559.298s.38-.181.872-.066c1.42.33.957 1.657.957 1.657s-.125-.501-.57-.688c-.42-.174-.768.1-.768.1s.687-.07.834.469c.083.305-.207.464-.207.464s.063-.684-1.578-.583c-.717.045-.715-.568-.715-.568s-.116-.002-.408-.088c-.266-.077-.449-.205-.449-.205.073.198.362.293.362.293-.38 0-.696-.293-.696-.293l.055.18c-.012-.022-.423-.363-.515-1.091a1.32 1.32 0 0 1 .301-1.021c.394-.463 1.147-.522 1.603-.558.676-.052 1.79-.112 2.774-.247 1.333-.183 1.413-.628 1.237-.912-.194-.32-.788-.326-1.71 0-.927.324-2.783.995-4.118.99-3.526-.015-5.107-1.51-6.16-1.232.03-1.35-.937-1.89-.937-1.89-.146.745-.044-.61-1.478-1.313 0 0-.01.336-.159.365-.193.04-.47-.486-.47-.486-.308.203-.404.52-.404.52l-.074-.151s-.239.15-.29.405c-.053.26.025.455-.09.46-.132.006-.413-.185-.413-.185s.05.446-.156.909c-.113.297-.278.568-.304.89-1.136.213-2.52.668-2.55 1.105-.03.41.043.827-.412.96l.014-.041-.01-.138-.23-.06-.095.153-.014.032c-.262-.154-.155-.625-.155-.625-.206.21-.639.595-.9.35l.04-.05.027-.145a.18.18 0 0 0-.218-.131l-.136.119c-.278-.391.294-.857.294-.857-.085-.043-.54-.134-.542-.463l.19.074.131-.04.013-.236-.165-.062-.072-.016a.46.46 0 0 1 .566-.16c.73.31.914.136 1.232.066.226-.048.43.006.433-.127.002-.11-.104-.19-.443-.148 0 0 .082-.215.452-.256.558-.061.733.076.807-.021.135-.178-.402-.246-.402-.246.438-.334 1.017-.077 1.017-.077.03-.195-.385-.236-.385-.236s.165-.184.492-.103c.123.03.231.089.231.089s-.098-.323.188-.488c0 0 .163.55.391.409.113-.068.128-.184.077-.25-.072-.094-.179-.08-.179-.08.066-.167.36-.167.36-.167s-.356-.22-1.348-.205c-1.316.108-1.24.255-1.56.643-.257.339-.406.359-.523.308l.057-.113-.013-.137-.228-.061-.083.123c-.162-.161-.132-.306-.057-.44-.065.01-.686.1-.796-.186l.22-.027.104-.106a.177.177 0 0 0-.108-.228l-.19.027-.09.024-.005-.03c-.007-.425.613-.436.92-.45-.13-.077-.27-.193-.238-.38l.173.077.145-.033.034-.252-.169-.077c.406-.268.71.104.856.188.428.244 1.085.216 1.252.036.124-.134-.15-.288-.15-.288.303-.04.525.147.525.147s-.059-.067-.082-.208a.33.33 0 0 1 .102-.311c.251.483.443.45.54.36.115-.11-.119-.274-.119-.274.291-.147.667.152.667.152s-.027-.248.114-.383c.191.348.61.316.887.282 0 0-.397-.271-.243-.611.25.24.56.329.982.277.877-.106 2.537-.604 5.386 2.04 1.926 1.786 3.212 1.557 3.212 1.557 1.711-1.39 4.998-1.414 5.84-1.477.406-.03.412-.282.234-.5a.52.52 0 0 0-.268-.167s-.809.335-1.108-.115l.157-.002.101-.074-.059-.206-.163-.002-.069.008c.036-.15.152-.194.232-.214l.024-.025c-.172-.164-.169-.334-.162-.39l.121.058.121-.02.042-.21-.142-.077-.044-.014c.086-.135.24-.217.474-.126.181.067.23.106.242.124-.019-.037-.08-.17-.015-.275l.028-.037.097.177.115.046.145-.157-.084-.14-.037-.047h.206c.252.05.448.265.504.798.021.18.06.279.105.329.084.096.276.166.276.166s.08-.211-.058-.367c.498-.081.565.702.565.702s.052-.151.164-.253c.11-.102.266-.124.266-.124-.09.558.13.749.235.775.21.052.203-.202.203-.202s.183.122.144.37c-.02.143-.096.279-.096.279s.176.087.27-.15c0 0 .188.303.016.47l.093.01.084-.07s.086.403-.315.597"></path><path fill="#ea1f29" d="m70.274 52.391.06.205-.102.075-.157.001-.062-.018c-.25-.086-.283-.289-.3-.4 0 0 .116.15.33.143l.068-.007zM70.42 51.596l-.041.211-.122.018-.12-.057-.068-.057c-.184-.191-.12-.385-.084-.493 0 0 .037.201.25.286l.044.015zM71.32 51.256l-.146.157-.114-.046-.097-.177-.004-.018c-.06-.259.098-.392.183-.464 0 0-.069.181.057.361l.037.05z"></path></g><g stroke-width="1.967" data-source="https://football-logos.cc"><path fill="#e6e6e6" d="M111.178.707c-3.929 11.914-5.114 15.758-7.58 22.918-9.497.158-11.324.219-25.16.365C88.61 31 89.026 31.512 98.38 38.276c-2.675 9.061-3.421 11.111-7.144 23.77 7.37-5.035 12.618-9.134 19.693-13.86 9.292 6.039 10.954 7.211 21.06 13.678-3.802-11.295-4.684-13.91-7.33-23.284 8.96-6.588 11.44-8.546 20.128-14.711-10.12-.086-15.351-.156-24.974-.244-3.632-8.87-4.649-11.722-8.635-22.918"></path><path fill="#d4d4d4" d="M111.178.712c-.092 19.359-.046 19.801-.062 33.496.01-.019.052.02.062 0 3.751-4.76 4.399-5.602 8.636-10.638-3.896-9.84-4.264-10.464-8.636-22.858m0 33.496c6.182 1.931 7.765 2.539 13.42 4.317 9.336-6.674 10.42-7.454 19.941-14.53-14.535 4.54-19.478 6.001-33.36 10.213m-.062 0h-.062c-3.746-5.159-4.06-5.71-7.392-10.517-11.681.211-13.256.222-25.223.365 17.164 5.252 19.317 5.97 32.553 10.213-5.784 1.817-6.8 2.151-12.611 4.012a2841 2841 0 0 0-7.144 23.83c10.136-14.281 11.962-16.85 19.88-27.842zm0 .06c-.07 6.219-.141 7.758-.186 13.922 9.63 6.293 10.32 6.695 21.06 13.617-10.55-13.993-12.48-16.556-20.874-27.538z"></path></g><!-- source: https://football-logos.cc --></svg>