<svg xmlns="http://www.w3.org/2000/svg" fill="none" viewBox="0 0 422 419"><metadata xmlns:fl="https://football-logos.cc/tournaments/uefa-conference-league">dl1_19113870ffd7d0d6087d69e31882286842dbb11daf6b6ea0f4f8e2f0158cfa24</metadata><!-- Source: https://football-logos.cc --><path fill="#00BE14" d="m263.798 33.213-5.318 17.762c20.038 14.4 33.084 37.644 33.084 63.833 0 28.618-15.567 53.735-38.826 67.619l6.14 16.852c30.175-16.514 50.589-48.15 50.589-84.471 0-34.31-18.215-64.443-45.669-81.595m-133.362 81.595c0-26.189 13.046-49.433 33.084-63.833l-5.317-17.762c-27.455 17.152-45.67 47.285-45.67 81.595 0 36.321 20.414 67.957 50.589 84.472l6.139-16.853c-23.258-13.884-38.825-39.001-38.825-67.619" data-source="https://football-logos.cc"></path><path fill="#000" d="M257.187 10.779c-3.311 7.439-22.025 49.484-25.976 96.216l-.063-1.41c-.503-10.935-2.552-55.52 7.629-102.468l.171.044c3.016.78 11.174 2.894 18.639 6.714q-.127.292-.397.899z"></path><path fill="#000" d="M189.176 88.538s6.745 24.385 10.088 45.232h5.902S193.514 61.693 164.997 9.875c3.144-1.543 9.532-4.567 19.529-6.933l26.535 130.828h5.916l-26.773-132S198.55.076 209.065 0c-.402 15.061.89 81.21 13.859 133.77h5.96S214.23 80.678 214.834.031c5.794.081 14.637 1.033 18.928 1.993l-.087.406c-1.598 7.347-19.748 90.84 5.461 183.17H183.44s14.596-43.03 5.736-97.062M173.957 212.959l6.762-18.423h61.159l6.749 18.423zM400.254 341.191c0 4.726 3.842 8.557 8.58 8.557H422v9.406h-14.433c-9.826 0-17.792-7.944-17.792-17.743v-10.238c0-9.798 7.966-17.742 17.792-17.742h13.909v9.406h-12.642c-4.738 0-8.58 3.831-8.58 8.556h19.518v1.231c0 4.515-3.671 8.175-8.198 8.175h-11.32zM269.252 340.799v.392c0 4.726 3.842 8.557 8.58 8.557h13.166v9.406h-14.433c-9.826 0-17.792-7.944-17.792-17.743v-10.238c0-9.798 7.966-17.742 17.792-17.742h13.909v9.406h-12.642c-4.738 0-8.58 3.831-8.58 8.556h19.518v1.231c0 4.515-3.671 8.175-8.198 8.175zM188.408 340.799v.392c0 4.726 3.842 8.557 8.58 8.557h13.166v9.406h-14.433c-9.827 0-17.793-7.944-17.793-17.743v-10.238c0-9.798 7.966-17.742 17.793-17.742h13.909v9.406h-12.642c-4.738 0-8.58 3.831-8.58 8.556h19.517v1.231c0 4.515-3.67 8.175-8.198 8.175zM254.138 329.897c0 9.29-6.042 13.332-10.14 15.162a.094.094 0 0 0-.036.143l10.392 13.952h-13.077l-7.063-9.483c-1.494-2.007-2.251-4.513-1.893-6.987.464-3.21 2.519-5.717 5.395-6.718 4.475-1.555 5.769-2.965 5.769-6.288 0-4.573-2.946-5.641-4.291-5.889-.487-.091-1.233-.076-1.233-.076h-10.477v35.441h-10.479v-45.723h21.655c3.628 0 7.322 1.422 10.135 3.902 2.438 2.148 5.343 6.071 5.343 12.564M373.835 326.435c-1.674-2.952-4.437-4.497-8.123-4.497-6.543 0-11.777 5.154-11.777 14.355s4.973 14.354 11.582 14.354c3.669 0 6.309-1.664 7.991-4.179 1.809-2.703 5.116-3.998 8.313-3.372l3.913.766c-2.158 10.178-9.683 16.311-20.217 16.311-12.76 0-22.182-9.07-22.182-23.88 0-14.811 9.554-23.882 22.442-23.882 10.537 0 18.062 5.547 19.957 15.334l-6.327 1.246a5.24 5.24 0 0 1-5.572-2.556M30.5 326.435c-1.673-2.952-4.436-4.497-8.122-4.497-6.543 0-11.778 5.154-11.778 14.355s4.973 14.354 11.583 14.354c3.669 0 6.309-1.664 7.991-4.179 1.809-2.703 5.115-3.998 8.313-3.372l3.913.766c-2.159 10.178-9.684 16.311-20.217 16.311-12.76 0-22.183-9.07-22.183-23.88 0-14.811 9.555-23.882 22.443-23.882 10.537 0 18.061 5.547 19.957 15.334l-6.328 1.246a5.24 5.24 0 0 1-5.571-2.556M312.478 318.114l14.608 23.761v-28.444h10.479v45.723h-6.741a8.2 8.2 0 0 1-6.989-3.902l-15.089-24.543v28.445h-10.479v-45.723h5.824a9.85 9.85 0 0 1 8.387 4.683M110.168 318.114l14.608 23.761v-28.444h10.479v45.723h-6.741a8.2 8.2 0 0 1-6.989-3.902l-15.089-24.543v28.445H95.957v-45.723h5.824a9.85 9.85 0 0 1 8.387 4.683"></path><path fill="#000" fill-rule="evenodd" d="M46.342 336.293c0-14.813 8.7-23.881 22.18-23.881 13.477 0 22.18 9.068 22.18 23.881 0 14.811-8.703 23.88-22.18 23.88-13.48 0-22.18-9.069-22.18-23.88m10.468 0c0 9.788 5.17 14.485 11.712 14.485 6.544 0 11.712-4.697 11.712-14.485s-5.168-14.485-11.712-14.485-11.712 4.698-11.712 14.485" clip-rule="evenodd" data-source="https://football-logos.cc"></path><path fill="#000" d="M143.593 359.154v-37.548c0-4.514 3.671-8.175 8.198-8.175h23.502v9.406h-17.122a4.093 4.093 0 0 0-4.099 4.088v4.468h17.401v1.232c0 4.514-3.67 8.175-8.197 8.175h-9.204v18.354zM232.635 252.927l9.653 2.495 1.525-5.871-9.925-2.564c-5.44-1.406-9.166.625-10.489 5.718l-4.053 15.599c-.188.724-.111 1.404.221 1.968.333.565.893.962 1.617 1.15l3.686.952 2.611-10.089 11.171 2.886 1.509-5.803-11.174-2.887.434-1.668c.575-2.212 1.237-2.397 3.214-1.886M201.314 244.321l-16.107 3.26c-.736.149-1.317.517-1.681 1.064s-.477 1.224-.328 1.957l3.211 15.773c.522 2.565 1.676 4.413 3.429 5.491 1.159.713 2.548 1.07 4.151 1.069a13.3 13.3 0 0 0 2.61-.282l10.067-2.037-1.212-5.954-9.793 1.982c-2.005.407-2.656.185-3.113-2.06l-.344-1.693 11.328-2.293-1.198-5.886-11.328 2.293-.86-4.225 12.38-2.505zM269.568 266.673c.302-.92.523-2.277-1.023-3.465l-.98-.752c-1.529-1.175-2.739-.671-3.622-.1l-22.926 14.796 5.992 3.381 14.614-9.426-2.518 8.471-2.218-1.662-3.829 2.737 4.756 3.542-1.105 3.805 5.249 4.791z"></path><path fill="#000" d="M145.263 262.135c18.091-15.574 41.541-24.151 66.029-24.151s47.938 8.577 66.03 24.151a93 93 0 0 1 5.398 5.039l3.408-4.197a98 98 0 0 0-5.289-4.905c-19.068-16.416-43.768-25.456-69.547-25.456s-50.478 9.04-69.547 25.456a98 98 0 0 0-5.289 4.905l3.408 4.197a93 93 0 0 1 5.399-5.039M211.292 282.378c17.444 0 33.521 8.064 42.972 19.793l3.301-4.065c-10.407-12.409-27.467-20.8-46.273-20.8-18.804 0-35.865 8.391-46.273 20.8l3.301 4.065c9.452-11.729 25.528-19.793 42.972-19.793"></path><path fill="#000" d="M167.305 279.942c-1.236 1.002-2.674 1.491-3.944 1.341-1.608-.183-2.586-.84-4.186-2.811l-9.223-11.308-4.973 4.031 10.043 12.323c2.136 2.61 4.568 4.007 7.438 4.269q.507.048 1.006.052c2.78.024 5.362-.953 7.864-2.972 2.788-2.271 4.317-4.908 4.676-8.06.328-2.857-.548-5.518-2.675-8.134l-10.042-12.32-4.972 4.03 9.218 11.313v.001c1.607 1.965 2.051 3.055 1.902 4.665-.112 1.268-.889 2.573-2.132 3.58M335.5 376.703h-2.427v-1.241h6.223v1.241h-2.427v6.622H335.5zM346.491 375.462l-2.404 6.285-2.404-6.285h-1.476v7.863h1.387v-4.715l1.808 4.715h1.37l1.808-4.715v4.715h1.387v-7.863zM161.036 417.981l17.299-42.52h10.355l17.3 42.52h-11.025l-2.24-5.843h-3.365c-4.844 0-8.772-3.917-8.772-8.747h8.786l-5.861-15.295-11.452 29.885zM226.182 395.202h18.369a4.08 4.08 0 0 1 4.084 4.072v4.353c0 4.596-2.199 8.981-6.03 11.536-3.647 2.433-8.062 3.837-13.839 3.837-12.056 0-22.022-8.464-22.022-22.204s10.09-22.208 21.899-22.208c11.011 0 17.288 5.399 19.502 13.434l-9.414 2.761c-1.414-4.785-4.858-7.361-10.21-7.361-5.843 0-11.935 4.356-11.935 13.374 0 9.016 5.598 13.371 13.041 13.371 3.003 0 5.605-.921 7.634-2.307a5.09 5.09 0 0 0 2.21-4.202v-.791h-7.163c-3.383 0-6.126-2.735-6.126-6.108zM272.282 410.257c5.363 0 8.284-3.522 8.284-9.233v-25.562h9.746v26.107c0 11.845-8.221 17.431-18.03 17.431-9.808 0-18.029-5.586-18.029-17.431v-26.107h9.745v25.562c0 5.711 2.922 9.233 8.284 9.233M105.681 375.462v31.04a2.735 2.735 0 0 0 2.737 2.731h16.727v8.748h-21.539c-4.236 0-7.67-3.425-7.67-7.649v-34.87zM306.426 401.277c0 4.394 3.573 7.957 7.979 7.957h12.244v8.747h-13.422c-9.138 0-16.546-7.388-16.546-16.5v-9.52c0-9.112 7.408-16.499 16.546-16.499h12.934v8.746h-11.756c-4.406 0-7.979 3.563-7.979 7.957h18.15v1.145c0 4.199-3.413 7.602-7.624 7.602h-10.526zM137.594 400.912v.365c0 4.394 3.572 7.957 7.979 7.957h12.243v8.747h-13.422c-9.138 0-16.545-7.388-16.545-16.5v-9.52c0-9.112 7.407-16.499 16.545-16.499h12.935v8.746h-11.756c-4.407 0-7.979 3.563-7.979 7.957h18.15v1.145c0 4.199-3.413 7.602-7.624 7.602z" data-source="https://football-logos.cc"></path><!-- source: https://football-logos.cc --></svg>