<svg xmlns="http://www.w3.org/2000/svg" viewBox="23.34 24.17 213.22 332.77"><metadata xmlns:fl="https://football-logos.cc/tournaments/uefa-nations-league">dl1_649b436bf4d005855a889010da621d0160db7903ed32bd7095ecdd81fe2e03ec</metadata><!-- Source: https://football-logos.cc --><defs data-source="https://football-logos.cc"><linearGradient id="a" x1="102.2" x2="181" y1="326" y2="336.9" gradientTransform="matrix(.9959 0 0 -.99452 .034 383.884)" gradientUnits="userSpaceOnUse"><stop offset="0" style="stop-color:#e30918;stop-opacity:1"></stop><stop offset=".5" style="stop-color:#9c1006;stop-opacity:1"></stop><stop offset="1" style="stop-color:#e30918;stop-opacity:1"></stop></linearGradient><linearGradient id="b" x1="105.6" x2="184" y1="301.1" y2="311.9" gradientTransform="matrix(.9959 0 0 -.99452 .034 383.884)" gradientUnits="userSpaceOnUse"><stop offset="0" style="stop-color:#e30918;stop-opacity:1"></stop><stop offset=".5" style="stop-color:#9c1006;stop-opacity:1"></stop><stop offset="1" style="stop-color:#e30918;stop-opacity:1"></stop></linearGradient><linearGradient id="c" x1="109.7" x2="190.9" y1="261.7" y2="275.5" gradientTransform="matrix(.9959 0 0 -.99452 .034 383.884)" gradientUnits="userSpaceOnUse"><stop offset="0" style="stop-color:#144391;stop-opacity:1"></stop><stop offset=".5" style="stop-color:#212a72;stop-opacity:1"></stop><stop offset="1" style="stop-color:#144391;stop-opacity:1"></stop></linearGradient><linearGradient id="d" x1="109.7" x2="187.6" y1="280" y2="290.8" gradientTransform="matrix(.9959 0 0 -.99452 .034 383.884)" gradientUnits="userSpaceOnUse"><stop offset="0" style="stop-color:#3fa3dc;stop-opacity:1"></stop><stop offset=".5" style="stop-color:#2a78aa;stop-opacity:1"></stop><stop offset="1" style="stop-color:#3fa3dc;stop-opacity:1"></stop></linearGradient><linearGradient id="e" x1="108.9" x2="179.9" y1="259.7" y2="269.3" gradientTransform="matrix(.9959 0 0 -.99452 .034 383.884)" gradientUnits="userSpaceOnUse"><stop offset="0" style="stop-color:#087bc0;stop-opacity:1"></stop><stop offset=".5" style="stop-color:#005d99;stop-opacity:1"></stop><stop offset="1" style="stop-color:#087bc0;stop-opacity:1"></stop></linearGradient><linearGradient id="f" x1="99.1" x2="179" y1="285" y2="296.3" gradientTransform="matrix(.9959 0 0 -.99452 .034 383.884)" gradientUnits="userSpaceOnUse"><stop offset="0" style="stop-color:#f39205;stop-opacity:1"></stop><stop offset=".5" style="stop-color:#d67a00;stop-opacity:1"></stop><stop offset="1" style="stop-color:#f39205;stop-opacity:1"></stop></linearGradient><linearGradient id="g" x1="106" x2="184.6" y1="297.5" y2="308.4" gradientTransform="matrix(.9959 0 0 -.99452 .034 383.884)" gradientUnits="userSpaceOnUse"><stop offset="0" style="stop-color:#e30918;stop-opacity:1"></stop><stop offset=".5" style="stop-color:#9c1006;stop-opacity:1"></stop><stop offset="1" style="stop-color:#e30918;stop-opacity:1"></stop></linearGradient><linearGradient id="h" x1="108.4" x2="187.9" y1="279.9" y2="290.6" gradientTransform="matrix(.9959 0 0 -.99452 .034 383.884)" gradientUnits="userSpaceOnUse"><stop offset="0" style="stop-color:#087bc0;stop-opacity:1"></stop><stop offset=".5" style="stop-color:#005d99;stop-opacity:1"></stop><stop offset="1" style="stop-color:#087bc0;stop-opacity:1"></stop></linearGradient><linearGradient id="i" x1="4.3" x2="83.9" y1="217.7" y2="229.4" gradientTransform="matrix(.9959 0 0 -.99452 .034 383.884)" gradientUnits="userSpaceOnUse"><stop offset="0" style="stop-color:#009e4c;stop-opacity:1"></stop><stop offset=".5" style="stop-color:#007e38;stop-opacity:1"></stop><stop offset="1" style="stop-color:#009e4c;stop-opacity:1"></stop></linearGradient><linearGradient id="j" x1="114.9" x2="194.2" y1="250.7" y2="263.6" gradientTransform="matrix(.9959 0 0 -.99452 .034 383.884)" gradientUnits="userSpaceOnUse"><stop offset="0" style="stop-color:#fff;stop-opacity:1"></stop><stop offset=".5" style="stop-color:#d0d0d0;stop-opacity:1"></stop><stop offset="1" style="stop-color:#fff;stop-opacity:1"></stop></linearGradient><linearGradient id="k" x1="103.4" x2="182.4" y1="262.9" y2="273.8" gradientTransform="matrix(.9959 0 0 -.99452 .034 383.884)" gradientUnits="userSpaceOnUse"><stop offset="0" style="stop-color:#e30918;stop-opacity:1"></stop><stop offset=".5" style="stop-color:#9c1006;stop-opacity:1"></stop><stop offset="1" style="stop-color:#e30918;stop-opacity:1"></stop></linearGradient><linearGradient id="l" x1="112.5" x2="195.9" y1="235" y2="246.2" gradientTransform="matrix(.9959 0 0 -.99452 .034 383.884)" gradientUnits="userSpaceOnUse"><stop offset="0" style="stop-color:#087bc0;stop-opacity:1"></stop><stop offset=".5" style="stop-color:#005d99;stop-opacity:1"></stop><stop offset="1" style="stop-color:#087bc0;stop-opacity:1"></stop></linearGradient><linearGradient id="m" x1="32" x2="111.2" y1="216.6" y2="227.3" gradientTransform="matrix(.9959 0 0 -.99452 .034 383.884)" gradientUnits="userSpaceOnUse"><stop offset="0" style="stop-color:#008045;stop-opacity:1"></stop><stop offset=".5" style="stop-color:#006231;stop-opacity:1"></stop><stop offset="1" style="stop-color:#008045;stop-opacity:1"></stop></linearGradient><linearGradient id="n" x1="111.4" x2="191.7" y1="233.7" y2="244.6" gradientTransform="matrix(.9959 0 0 -.99452 .034 383.884)" gradientUnits="userSpaceOnUse"><stop offset="0" style="stop-color:#008045;stop-opacity:1"></stop><stop offset=".5" style="stop-color:#006231;stop-opacity:1"></stop><stop offset="1" style="stop-color:#008045;stop-opacity:1"></stop></linearGradient><linearGradient id="o" x1="116" x2="196.2" y1="220.9" y2="231.7" gradientTransform="matrix(.9959 0 0 -.99452 .034 383.884)" gradientUnits="userSpaceOnUse"><stop offset="0" style="stop-color:#008045;stop-opacity:1"></stop><stop offset=".5" style="stop-color:#006231;stop-opacity:1"></stop><stop offset="1" style="stop-color:#008045;stop-opacity:1"></stop></linearGradient><linearGradient id="p" x1="116" x2="187" y1="218.6" y2="229" gradientTransform="matrix(.9959 0 0 -.99452 .034 383.884)" gradientUnits="userSpaceOnUse"><stop offset="0" style="stop-color:#009e4c;stop-opacity:1"></stop><stop offset=".5" style="stop-color:#007e38;stop-opacity:1"></stop><stop offset="1" style="stop-color:#009e4c;stop-opacity:1"></stop></linearGradient><linearGradient id="q" x1="126.6" x2="207" y1="191.2" y2="204.3" gradientTransform="matrix(.9959 0 0 -.99452 .034 383.884)" gradientUnits="userSpaceOnUse"><stop offset="0" style="stop-color:#fff;stop-opacity:1"></stop><stop offset=".5" style="stop-color:#d0d0d0;stop-opacity:1"></stop><stop offset="1" style="stop-color:#fff;stop-opacity:1"></stop></linearGradient><linearGradient id="r" x1="109.6" x2="187.1" y1="283.1" y2="295.8" gradientTransform="matrix(.9959 0 0 -.99452 .034 383.884)" gradientUnits="userSpaceOnUse"><stop offset="0" style="stop-color:#fff;stop-opacity:1"></stop><stop offset=".5" style="stop-color:#d0d0d0;stop-opacity:1"></stop><stop offset="1" style="stop-color:#fff;stop-opacity:1"></stop></linearGradient><linearGradient id="s" x1="121.8" x2="205" y1="194.4" y2="208" gradientTransform="matrix(.9959 0 0 -.99452 .034 383.884)" gradientUnits="userSpaceOnUse"><stop offset="0" style="stop-color:#fff;stop-opacity:1"></stop><stop offset=".5" style="stop-color:#d0d0d0;stop-opacity:1"></stop><stop offset="1" style="stop-color:#fff;stop-opacity:1"></stop></linearGradient><linearGradient id="t" x1="116.1" x2="197.4" y1="222.7" y2="236" gradientTransform="matrix(.9959 0 0 -.99452 .034 383.884)" gradientUnits="userSpaceOnUse"><stop offset="0" style="stop-color:#fff;stop-opacity:1"></stop><stop offset=".5" style="stop-color:#d0d0d0;stop-opacity:1"></stop><stop offset="1" style="stop-color:#fff;stop-opacity:1"></stop></linearGradient><linearGradient id="u" x1="110.8" x2="189.1" y1="274.8" y2="288.1" gradientTransform="matrix(.9959 0 0 -.99452 .034 383.884)" gradientUnits="userSpaceOnUse"><stop offset="0" style="stop-color:#144391;stop-opacity:1"></stop><stop offset=".4" style="stop-color:#212a72;stop-opacity:1"></stop><stop offset="1" style="stop-color:#144391;stop-opacity:1"></stop></linearGradient><linearGradient id="v" x1="95.2" x2="173" y1="241.3" y2="254.5" gradientTransform="matrix(.9959 0 0 -.99452 .034 383.884)" gradientUnits="userSpaceOnUse"><stop offset="0" style="stop-color:#ffdd04;stop-opacity:1"></stop><stop offset=".5" style="stop-color:#ca9800;stop-opacity:1"></stop><stop offset="1" style="stop-color:#ffdd04;stop-opacity:1"></stop></linearGradient><linearGradient id="w" x1="114.2" x2="191.4" y1="253.8" y2="266.9" gradientTransform="matrix(.9959 0 0 -.99452 .034 383.884)" gradientUnits="userSpaceOnUse"><stop offset="0" style="stop-color:#144391;stop-opacity:1"></stop><stop offset=".5" style="stop-color:#212a72;stop-opacity:1"></stop><stop offset="1" style="stop-color:#144391;stop-opacity:1"></stop></linearGradient><linearGradient id="x" x1="110" x2="186.6" y1="275.3" y2="288.3" gradientTransform="matrix(.9959 0 0 -.99452 .034 383.884)" gradientUnits="userSpaceOnUse"><stop offset="0" style="stop-color:#144391;stop-opacity:1"></stop><stop offset=".5" style="stop-color:#212a72;stop-opacity:1"></stop><stop offset="1" style="stop-color:#144391;stop-opacity:1"></stop></linearGradient><linearGradient id="y" x1="103.4" x2="181.2" y1="319.3" y2="332.5" gradientTransform="matrix(.9959 0 0 -.99452 .034 383.884)" gradientUnits="userSpaceOnUse"><stop offset="0" style="stop-color:#e30918;stop-opacity:1"></stop><stop offset=".5" style="stop-color:#9c1006;stop-opacity:1"></stop><stop offset="1" style="stop-color:#e30918;stop-opacity:1"></stop></linearGradient><linearGradient id="z" x1="113" x2="190.9" y1="201.8" y2="215.1" gradientTransform="matrix(.9959 0 0 -.99452 .034 383.884)" gradientUnits="userSpaceOnUse"><stop offset="0" style="stop-color:#144391;stop-opacity:1"></stop><stop offset=".5" style="stop-color:#212a72;stop-opacity:1"></stop><stop offset="1" style="stop-color:#144391;stop-opacity:1"></stop></linearGradient><linearGradient id="A" x1="117.2" x2="195" y1="237" y2="250.2" gradientTransform="matrix(.9959 0 0 -.99452 .034 383.884)" gradientUnits="userSpaceOnUse"><stop offset="0" style="stop-color:#144391;stop-opacity:1"></stop><stop offset=".5" style="stop-color:#212a72;stop-opacity:1"></stop><stop offset="1" style="stop-color:#144391;stop-opacity:1"></stop></linearGradient><linearGradient id="B" x1="113.4" x2="191.4" y1="258.6" y2="271.9" gradientTransform="matrix(.9959 0 0 -.99452 .034 383.884)" gradientUnits="userSpaceOnUse"><stop offset="0" style="stop-color:#144391;stop-opacity:1"></stop><stop offset=".5" style="stop-color:#212a72;stop-opacity:1"></stop><stop offset="1" style="stop-color:#144391;stop-opacity:1"></stop></linearGradient><linearGradient id="C" x1="110.9" x2="191.5" y1="284.9" y2="298.6" gradientTransform="matrix(.9959 0 0 -.99452 .034 383.884)" gradientUnits="userSpaceOnUse"><stop offset="0" style="stop-color:#144391;stop-opacity:1"></stop><stop offset=".5" style="stop-color:#212a72;stop-opacity:1"></stop><stop offset="1" style="stop-color:#144391;stop-opacity:1"></stop></linearGradient><linearGradient id="D" x1="107.6" x2="191.2" y1="294.3" y2="308.6" gradientTransform="matrix(.9959 0 0 -.99452 .034 383.884)" gradientUnits="userSpaceOnUse"><stop offset="0" style="stop-color:#144391;stop-opacity:1"></stop><stop offset=".5" style="stop-color:#212a72;stop-opacity:1"></stop><stop offset="1" style="stop-color:#144391;stop-opacity:1"></stop></linearGradient><linearGradient id="E" x1="103" x2="181.1" y1="318.9" y2="331" gradientTransform="matrix(.9959 0 0 -.99452 .034 383.884)" gradientUnits="userSpaceOnUse"><stop offset="0" style="stop-color:#af1923;stop-opacity:1"></stop><stop offset=".5" style="stop-color:#780d0b;stop-opacity:1"></stop><stop offset="1" style="stop-color:#af1923;stop-opacity:1"></stop></linearGradient><linearGradient id="F" x1="100.3" x2="178.7" y1="242.5" y2="254.6" gradientTransform="matrix(.9959 0 0 -.99452 .034 383.884)" gradientUnits="userSpaceOnUse"><stop offset="0" style="stop-color:#af1923;stop-opacity:1"></stop><stop offset=".5" style="stop-color:#780d0b;stop-opacity:1"></stop><stop offset="1" style="stop-color:#af1923;stop-opacity:1"></stop></linearGradient><linearGradient id="G" x1="108.5" x2="187.5" y1="216.1" y2="228.4" gradientTransform="matrix(.9959 0 0 -.99452 .034 383.884)" gradientUnits="userSpaceOnUse"><stop offset="0" style="stop-color:#af1923;stop-opacity:1"></stop><stop offset=".4" style="stop-color:#780d0b;stop-opacity:1"></stop><stop offset="1" style="stop-color:#af1923;stop-opacity:1"></stop></linearGradient><linearGradient id="H" x1="106.5" x2="178.3" y1="317.3" y2="328.4" gradientTransform="matrix(.9959 0 0 -.99452 .034 383.884)" gradientUnits="userSpaceOnUse"><stop offset="0" style="stop-color:#af1923;stop-opacity:1"></stop><stop offset=".5" style="stop-color:#780d0b;stop-opacity:1"></stop><stop offset="1" style="stop-color:#af1923;stop-opacity:1"></stop></linearGradient><linearGradient id="I" x1="105.3" x2="183.6" y1="302.4" y2="314.5" gradientTransform="matrix(.9959 0 0 -.99452 .034 383.884)" gradientUnits="userSpaceOnUse"><stop offset="0" style="stop-color:#af1923;stop-opacity:1"></stop><stop offset=".5" style="stop-color:#780d0b;stop-opacity:1"></stop><stop offset="1" style="stop-color:#af1923;stop-opacity:1"></stop></linearGradient><linearGradient id="J" x1="102.8" x2="183.9" y1="331" y2="343.6" gradientTransform="matrix(.9959 0 0 -.99452 .034 383.884)" gradientUnits="userSpaceOnUse"><stop offset="0" style="stop-color:#fff;stop-opacity:1"></stop><stop offset=".5" style="stop-color:#d0d0d0;stop-opacity:1"></stop><stop offset="1" style="stop-color:#fff;stop-opacity:1"></stop></linearGradient><linearGradient id="K" x1="119.1" x2="202.5" y1="183.2" y2="196.1" gradientTransform="matrix(.9959 0 0 -.99452 .034 383.884)" gradientUnits="userSpaceOnUse"><stop offset="0" style="stop-color:#fff;stop-opacity:1"></stop><stop offset=".5" style="stop-color:#d0d0d0;stop-opacity:1"></stop><stop offset="1" style="stop-color:#fff;stop-opacity:1"></stop></linearGradient><linearGradient id="L" x1="98.4" x2="176.8" y1="304.9" y2="315.8" gradientTransform="matrix(.9959 0 0 -.99452 .034 383.884)" gradientUnits="userSpaceOnUse"><stop offset="0" style="stop-color:#3fa3dc;stop-opacity:1"></stop><stop offset=".5" style="stop-color:#2a78aa;stop-opacity:1"></stop><stop offset="1" style="stop-color:#3fa3dc;stop-opacity:1"></stop></linearGradient><linearGradient id="M" x1="117" x2="195" y1="198" y2="208.8" gradientTransform="matrix(.9959 0 0 -.99452 .034 383.884)" gradientUnits="userSpaceOnUse"><stop offset="0" style="stop-color:#3fa3dc;stop-opacity:1"></stop><stop offset=".5" style="stop-color:#2a78aa;stop-opacity:1"></stop><stop offset="1" style="stop-color:#3fa3dc;stop-opacity:1"></stop></linearGradient><linearGradient id="N" x1="102.8" x2="184.2" y1="306.2" y2="317.5" gradientTransform="matrix(.9959 0 0 -.99452 .034 383.884)" gradientUnits="userSpaceOnUse"><stop offset="0" style="stop-color:#009e4c;stop-opacity:1"></stop><stop offset=".5" style="stop-color:#007e38;stop-opacity:1"></stop><stop offset="1" style="stop-color:#009e4c;stop-opacity:1"></stop></linearGradient><linearGradient id="O" x1="116" x2="193.9" y1="234.2" y2="245.1" gradientTransform="matrix(.9959 0 0 -.99452 .034 383.884)" gradientUnits="userSpaceOnUse"><stop offset="0" style="stop-color:#3fa3dc;stop-opacity:1"></stop><stop offset=".5" style="stop-color:#2a78aa;stop-opacity:1"></stop><stop offset="1" style="stop-color:#3fa3dc;stop-opacity:1"></stop></linearGradient><linearGradient id="P" x1="99.9" x2="178.1" y1="232.3" y2="242.7" gradientTransform="matrix(.9959 0 0 -.99452 .034 383.884)" gradientUnits="userSpaceOnUse"><stop offset="0" style="stop-color:#144391;stop-opacity:1"></stop><stop offset=".5" style="stop-color:#212a72;stop-opacity:1"></stop><stop offset="1" style="stop-color:#144391;stop-opacity:1"></stop></linearGradient><linearGradient id="Q" x1="100.9" x2="181.8" y1="303.7" y2="314.4" gradientTransform="matrix(.9959 0 0 -.99452 .034 383.884)" gradientUnits="userSpaceOnUse"><stop offset="0" style="stop-color:#ffdd04;stop-opacity:1"></stop><stop offset=".5" style="stop-color:#ca9800;stop-opacity:1"></stop><stop offset="1" style="stop-color:#ffdd04;stop-opacity:1"></stop></linearGradient><linearGradient id="R" x1="104.8" x2="185.8" y1="202.1" y2="212.9" gradientTransform="matrix(.9959 0 0 -.99452 .034 383.884)" gradientUnits="userSpaceOnUse"><stop offset="0" style="stop-color:#fdc301;stop-opacity:1"></stop><stop offset=".5" style="stop-color:#c78800;stop-opacity:1"></stop><stop offset="1" style="stop-color:#fdc301;stop-opacity:1"></stop></linearGradient><linearGradient id="S" x1="119.1" x2="198.8" y1="194.4" y2="205" gradientTransform="matrix(.9959 0 0 -.99452 .034 383.884)" gradientUnits="userSpaceOnUse"><stop offset="0" style="stop-color:#ffdd04;stop-opacity:1"></stop><stop offset=".5" style="stop-color:#ca9800;stop-opacity:1"></stop><stop offset="1" style="stop-color:#ffdd04;stop-opacity:1"></stop></linearGradient><linearGradient id="T" x1="123.3" x2="200.6" y1="179.6" y2="189.9" gradientTransform="matrix(.9959 0 0 -.99452 .034 383.884)" gradientUnits="userSpaceOnUse"><stop offset="0" style="stop-color:#ffdd04;stop-opacity:1"></stop><stop offset=".5" style="stop-color:#ca9800;stop-opacity:1"></stop><stop offset="1" style="stop-color:#ffdd04;stop-opacity:1"></stop></linearGradient><linearGradient id="U" x1="-56.6" x2="99.7" y1="161.9" y2="182.7" gradientTransform="matrix(.9959 0 0 -.99452 .034 383.884)" gradientUnits="userSpaceOnUse"><stop offset="0" style="stop-color:#ffdd04;stop-opacity:1"></stop><stop offset=".5" style="stop-color:#ca9800;stop-opacity:1"></stop><stop offset="1" style="stop-color:#ffdd04;stop-opacity:1"></stop></linearGradient><linearGradient id="V" x1="70.9" x2="150.8" y1="200.6" y2="225.7" gradientTransform="matrix(.9959 0 0 -.99452 .034 383.884)" gradientUnits="userSpaceOnUse"><stop offset="0" style="stop-color:#009e4c;stop-opacity:1"></stop><stop offset=".5" style="stop-color:#007e38;stop-opacity:1"></stop><stop offset="1" style="stop-color:#009e4c;stop-opacity:1"></stop></linearGradient><linearGradient id="W" x1="64.4" x2="144.9" y1="272.7" y2="298" gradientTransform="matrix(.9959 0 0 -.99452 .034 383.884)" gradientUnits="userSpaceOnUse"><stop offset="0" style="stop-color:#009e4c;stop-opacity:1"></stop><stop offset=".5" style="stop-color:#007e38;stop-opacity:1"></stop><stop offset="1" style="stop-color:#009e4c;stop-opacity:1"></stop></linearGradient><linearGradient id="X" x1="99.6" x2="179.1" y1="346.9" y2="358.6" gradientTransform="matrix(.9959 0 0 -.99452 .034 383.884)" gradientUnits="userSpaceOnUse"><stop offset="0" style="stop-color:#009e4c;stop-opacity:1"></stop><stop offset=".5" style="stop-color:#007e38;stop-opacity:1"></stop><stop offset="1" style="stop-color:#009e4c;stop-opacity:1"></stop></linearGradient><linearGradient id="Y" x1="112" x2="191.2" y1="260.5" y2="272.1" gradientTransform="matrix(.9959 0 0 -.99452 .034 383.884)" gradientUnits="userSpaceOnUse"><stop offset="0" style="stop-color:#009e4c;stop-opacity:1"></stop><stop offset=".5" style="stop-color:#007e38;stop-opacity:1"></stop><stop offset="1" style="stop-color:#009e4c;stop-opacity:1"></stop></linearGradient><linearGradient id="Z" x1="121.9" x2="203.6" y1="192.4" y2="205.1" gradientTransform="matrix(.9959 0 0 -.99452 .034 383.884)" gradientUnits="userSpaceOnUse"><stop offset="0" style="stop-color:#fdc301;stop-opacity:1"></stop><stop offset=".5" style="stop-color:#c78800;stop-opacity:1"></stop><stop offset="1" style="stop-color:#fdc301;stop-opacity:1"></stop></linearGradient><linearGradient id="aa" x1="116.8" x2="199" y1="237.7" y2="250.4" gradientTransform="matrix(.9959 0 0 -.99452 .034 383.884)" gradientUnits="userSpaceOnUse"><stop offset="0" style="stop-color:#fdc301;stop-opacity:1"></stop><stop offset=".5" style="stop-color:#c78800;stop-opacity:1"></stop><stop offset="1" style="stop-color:#fdc301;stop-opacity:1"></stop></linearGradient><linearGradient id="ab" x1="90.4" x2="150.8" y1="258.4" y2="266.5" gradientTransform="matrix(.9959 0 0 -.99452 .034 383.884)" gradientUnits="userSpaceOnUse"><stop offset="0" style="stop-color:#144391;stop-opacity:1"></stop><stop offset=".5" style="stop-color:#212a72;stop-opacity:1"></stop><stop offset="1" style="stop-color:#144391;stop-opacity:1"></stop></linearGradient><linearGradient id="ac" x1="123.9" x2="203.8" y1="180.3" y2="192.7" gradientTransform="matrix(.9959 0 0 -.99452 .034 383.884)" gradientUnits="userSpaceOnUse"><stop offset="0" style="stop-color:#fdc301;stop-opacity:1"></stop><stop offset=".5" style="stop-color:#c78800;stop-opacity:1"></stop><stop offset="1" style="stop-color:#fdc301;stop-opacity:1"></stop></linearGradient><linearGradient id="ad" x1="123.2" x2="203.2" y1="184.3" y2="196.8" gradientTransform="matrix(.9959 0 0 -.99452 .034 383.884)" gradientUnits="userSpaceOnUse"><stop offset="0" style="stop-color:#fdc301;stop-opacity:1"></stop><stop offset=".5" style="stop-color:#c78800;stop-opacity:1"></stop><stop offset="1" style="stop-color:#fdc301;stop-opacity:1"></stop></linearGradient><linearGradient id="ae" x1="122.1" x2="199.8" y1="186.2" y2="197.3" gradientTransform="matrix(.9959 0 0 -.99452 .034 383.884)" gradientUnits="userSpaceOnUse"><stop offset="0" style="stop-color:#ea5045;stop-opacity:1"></stop><stop offset=".5" style="stop-color:#c53a31;stop-opacity:1"></stop><stop offset="1" style="stop-color:#ea5045;stop-opacity:1"></stop></linearGradient><linearGradient id="af" x1="129.1" x2="207.9" y1="182" y2="193.3" gradientTransform="matrix(.9959 0 0 -.99452 .034 383.884)" gradientUnits="userSpaceOnUse"><stop offset="0" style="stop-color:#e30918;stop-opacity:1"></stop><stop offset=".5" style="stop-color:#9c1006;stop-opacity:1"></stop><stop offset="1" style="stop-color:#e30918;stop-opacity:1"></stop></linearGradient><linearGradient id="ag" x1="113.9" x2="192.1" y1="247" y2="258.2" gradientTransform="matrix(.9959 0 0 -.99452 .034 383.884)" gradientUnits="userSpaceOnUse"><stop offset="0" style="stop-color:#ea5045;stop-opacity:1"></stop><stop offset=".5" style="stop-color:#c53a31;stop-opacity:1"></stop><stop offset="1" style="stop-color:#ea5045;stop-opacity:1"></stop></linearGradient><linearGradient id="ah" x1="101.5" x2="185.3" y1="336.1" y2="348.1" gradientTransform="matrix(.9959 0 0 -.99452 .034 383.884)" gradientUnits="userSpaceOnUse"><stop offset="0" style="stop-color:#ea5045;stop-opacity:1"></stop><stop offset=".5" style="stop-color:#c53a31;stop-opacity:1"></stop><stop offset="1" style="stop-color:#ea5045;stop-opacity:1"></stop></linearGradient><linearGradient id="ai" x1="118.3" x2="197" y1="215" y2="226.3" gradientTransform="matrix(.9959 0 0 -.99452 .034 383.884)" gradientUnits="userSpaceOnUse"><stop offset="0" style="stop-color:#fff;stop-opacity:1"></stop><stop offset=".5" style="stop-color:#d0d0d0;stop-opacity:1"></stop><stop offset="1" style="stop-color:#fff;stop-opacity:1"></stop></linearGradient><linearGradient id="aj" x1="101.1" x2="174.7" y1="240.9" y2="251.4" gradientTransform="matrix(.9959 0 0 -.99452 .034 383.884)" gradientUnits="userSpaceOnUse"><stop offset="0" style="stop-color:#ffdd04;stop-opacity:1"></stop><stop offset=".5" style="stop-color:#ca9800;stop-opacity:1"></stop><stop offset="1" style="stop-color:#ffdd04;stop-opacity:1"></stop></linearGradient><linearGradient id="ak" x1="110.1" x2="189.3" y1="191.3" y2="201.9" gradientTransform="matrix(.9959 0 0 -.99452 .034 383.884)" gradientUnits="userSpaceOnUse"><stop offset="0" style="stop-color:#087bc0;stop-opacity:1"></stop><stop offset=".5" style="stop-color:#005d99;stop-opacity:1"></stop><stop offset="1" style="stop-color:#087bc0;stop-opacity:1"></stop></linearGradient><linearGradient id="al" x1="102.9" x2="184.7" y1="308.9" y2="324" gradientTransform="matrix(.9959 0 0 -.99452 .034 383.884)" gradientUnits="userSpaceOnUse"><stop offset="0" style="stop-color:#fff;stop-opacity:1"></stop><stop offset=".5" style="stop-color:#a8a8a7;stop-opacity:1"></stop><stop offset="1" style="stop-color:#fff;stop-opacity:1"></stop></linearGradient><linearGradient id="am" x1="121" x2="184.7" y1="244.7" y2="256.4" gradientTransform="matrix(.9959 0 0 -.99452 .034 383.884)" gradientUnits="userSpaceOnUse"><stop offset="0" style="stop-color:#fff;stop-opacity:1"></stop><stop offset=".5" style="stop-color:#a8a8a7;stop-opacity:1"></stop><stop offset="1" style="stop-color:#fff;stop-opacity:1"></stop></linearGradient><linearGradient id="an" x1="232.7" x2="162.5" y1="305.4" y2="286.6" gradientTransform="matrix(.9959 0 0 -.99452 .034 383.884)" gradientUnits="userSpaceOnUse"><stop offset="0" style="stop-color:#d0d0d0;stop-opacity:1"></stop><stop offset="1" style="stop-color:#fff;stop-opacity:1"></stop></linearGradient><linearGradient id="ao" x1="235" x2="183" y1="221.8" y2="209" gradientTransform="matrix(.9959 0 0 -.99452 .034 383.884)" gradientUnits="userSpaceOnUse"><stop offset="0" style="stop-color:#d0d0d0;stop-opacity:1"></stop><stop offset="1" style="stop-color:#fff;stop-opacity:1"></stop></linearGradient><linearGradient id="ap" x1="202.9" x2="163.5" y1="255.8" y2="242.1" gradientTransform="matrix(.9959 0 0 -.99452 .034 383.884)" gradientUnits="userSpaceOnUse"><stop offset="0" style="stop-color:#d0d0d0;stop-opacity:1"></stop><stop offset="1" style="stop-color:#fff;stop-opacity:1"></stop></linearGradient><linearGradient id="aq" x1="95.2" x2="177" y1="282" y2="297.1" gradientTransform="matrix(.9959 0 0 -.99452 .034 383.884)" gradientUnits="userSpaceOnUse"><stop offset="0" style="stop-color:#fff;stop-opacity:1"></stop><stop offset=".5" style="stop-color:#a8a8a7;stop-opacity:1"></stop><stop offset="1" style="stop-color:#fff;stop-opacity:1"></stop></linearGradient><linearGradient id="ar" x1="100.8" x2="179.3" y1="288.3" y2="299.2" gradientTransform="matrix(.9959 0 0 -.99452 .034 383.884)" gradientUnits="userSpaceOnUse"><stop offset="0" style="stop-color:#e30918;stop-opacity:1"></stop><stop offset=".5" style="stop-color:#9c1006;stop-opacity:1"></stop><stop offset="1" style="stop-color:#e30918;stop-opacity:1"></stop></linearGradient><linearGradient id="as" x1="114.8" x2="193.3" y1="233.7" y2="244.6" gradientTransform="matrix(.9959 0 0 -.99452 .034 383.884)" gradientUnits="userSpaceOnUse"><stop offset="0" style="stop-color:#e30918;stop-opacity:1"></stop><stop offset=".5" style="stop-color:#9c1006;stop-opacity:1"></stop><stop offset="1" style="stop-color:#e30918;stop-opacity:1"></stop></linearGradient><linearGradient id="at" x1="99.9" x2="178.4" y1="342.5" y2="353.4" gradientTransform="matrix(.9959 0 0 -.99452 .034 383.884)" gradientUnits="userSpaceOnUse"><stop offset="0" style="stop-color:#144391;stop-opacity:1"></stop><stop offset=".5" style="stop-color:#212a72;stop-opacity:1"></stop><stop offset="1" style="stop-color:#144391;stop-opacity:1"></stop></linearGradient><linearGradient id="au" x1="98.1" x2="176.6" y1="273.9" y2="284.7" gradientTransform="matrix(.9959 0 0 -.99452 .034 383.884)" gradientUnits="userSpaceOnUse"><stop offset="0" style="stop-color:#e30918;stop-opacity:1"></stop><stop offset=".5" style="stop-color:#9c1006;stop-opacity:1"></stop><stop offset="1" style="stop-color:#e30918;stop-opacity:1"></stop></linearGradient><linearGradient id="av" x1="102.1" x2="180.6" y1="326.1" y2="337" gradientTransform="matrix(.9959 0 0 -.99452 .034 383.884)" gradientUnits="userSpaceOnUse"><stop offset="0" style="stop-color:#e30918;stop-opacity:1"></stop><stop offset=".5" style="stop-color:#9c1006;stop-opacity:1"></stop><stop offset="1" style="stop-color:#e30918;stop-opacity:1"></stop></linearGradient><linearGradient id="aw" x1="116.5" x2="195" y1="220.9" y2="231.8" gradientTransform="matrix(.9959 0 0 -.99452 .034 383.884)" gradientUnits="userSpaceOnUse"><stop offset="0" style="stop-color:#e30918;stop-opacity:1"></stop><stop offset=".5" style="stop-color:#9c1006;stop-opacity:1"></stop><stop offset="1" style="stop-color:#e30918;stop-opacity:1"></stop></linearGradient><linearGradient id="ax" x1="100.4" x2="184.9" y1="317.4" y2="329.1" gradientTransform="matrix(.9959 0 0 -.99452 .034 383.884)" gradientUnits="userSpaceOnUse"><stop offset="0" style="stop-color:#e30918;stop-opacity:1"></stop><stop offset=".5" style="stop-color:#9c1006;stop-opacity:1"></stop><stop offset="1" style="stop-color:#e30918;stop-opacity:1"></stop></linearGradient><linearGradient id="ay" x1="118.6" x2="198.4" y1="201.6" y2="212.7" gradientTransform="matrix(.9959 0 0 -.99452 .034 383.884)" gradientUnits="userSpaceOnUse"><stop offset="0" style="stop-color:#e30918;stop-opacity:1"></stop><stop offset=".5" style="stop-color:#9c1006;stop-opacity:1"></stop><stop offset="1" style="stop-color:#e30918;stop-opacity:1"></stop></linearGradient><linearGradient id="az" x1="108.9" x2="187.4" y1="275" y2="285.9" gradientTransform="matrix(.9959 0 0 -.99452 .034 383.884)" gradientUnits="userSpaceOnUse"><stop offset="0" style="stop-color:#e30918;stop-opacity:1"></stop><stop offset=".5" style="stop-color:#9c1006;stop-opacity:1"></stop><stop offset="1" style="stop-color:#e30918;stop-opacity:1"></stop></linearGradient><linearGradient id="aA" x1="21.5" x2="64.2" y1="191.9" y2="201.8" gradientTransform="matrix(.9959 0 0 -.99452 .034 383.884)" gradientUnits="userSpaceOnUse"><stop offset="0" style="stop-color:#d0d0d0;stop-opacity:1"></stop><stop offset="1" style="stop-color:#fff;stop-opacity:1"></stop></linearGradient><linearGradient id="aB" x1="13.3" x2="56.2" y1="281.6" y2="291.6" gradientTransform="matrix(.9959 0 0 -.99452 .034 383.884)" gradientUnits="userSpaceOnUse"><stop offset="0" style="stop-color:#d0d0d0;stop-opacity:1"></stop><stop offset="1" style="stop-color:#fff;stop-opacity:1"></stop></linearGradient><linearGradient id="aC" x1="37.6" x2="66.4" y1="241.1" y2="247.3" gradientTransform="matrix(.9959 0 0 -.99452 .034 383.884)" gradientUnits="userSpaceOnUse"><stop offset="0" style="stop-color:#d0d0d0;stop-opacity:1"></stop><stop offset="1" style="stop-color:#fff;stop-opacity:1"></stop></linearGradient><linearGradient id="aD" x1="39.1" x2="87.9" y1="196.2" y2="211.6" gradientTransform="matrix(.9959 0 0 -.99452 .034 383.884)" gradientUnits="userSpaceOnUse"><stop offset="0" style="stop-color:#d0d0d0;stop-opacity:1"></stop><stop offset="1" style="stop-color:#fff;stop-opacity:1"></stop></linearGradient><linearGradient id="aE" x1="25.8" x2="74.4" y1="240.1" y2="255.4" gradientTransform="matrix(.9959 0 0 -.99452 .034 383.884)" gradientUnits="userSpaceOnUse"><stop offset="0" style="stop-color:#d0d0d0;stop-opacity:1"></stop><stop offset="1" style="stop-color:#fff;stop-opacity:1"></stop></linearGradient><linearGradient id="aF" x1="119" x2="197.4" y1="204.2" y2="215" gradientTransform="matrix(.9959 0 0 -.99452 .034 383.884)" gradientUnits="userSpaceOnUse"><stop offset="0" style="stop-color:#fff;stop-opacity:1"></stop><stop offset=".5" style="stop-color:#a8a8a7;stop-opacity:1"></stop><stop offset="1" style="stop-color:#d0d0d0;stop-opacity:1"></stop></linearGradient><linearGradient id="aG" x1="106.6" x2="185" y1="263.3" y2="274.1" gradientTransform="matrix(.9959 0 0 -.99452 .034 383.884)" gradientUnits="userSpaceOnUse"><stop offset="0" style="stop-color:#fff;stop-opacity:1"></stop><stop offset=".5" style="stop-color:#a8a8a7;stop-opacity:1"></stop><stop offset="1" style="stop-color:#d0d0d0;stop-opacity:1"></stop></linearGradient><linearGradient id="aH" x1="102.9" x2="181.3" y1="305.6" y2="316.4" gradientTransform="matrix(.9959 0 0 -.99452 .034 383.884)" gradientUnits="userSpaceOnUse"><stop offset="0" style="stop-color:#fff;stop-opacity:1"></stop><stop offset=".5" style="stop-color:#a8a8a7;stop-opacity:1"></stop><stop offset="1" style="stop-color:#d0d0d0;stop-opacity:1"></stop></linearGradient><linearGradient id="aI" x1="115.4" x2="188.7" y1="220.3" y2="230.3" gradientTransform="matrix(.9959 0 0 -.99452 .034 383.884)" gradientUnits="userSpaceOnUse"><stop offset="0" style="stop-color:#fff;stop-opacity:1"></stop><stop offset=".5" style="stop-color:#a8a8a7;stop-opacity:1"></stop><stop offset="1" style="stop-color:#d0d0d0;stop-opacity:1"></stop></linearGradient><linearGradient id="aJ" x1="123.5" x2="201.8" y1="199.3" y2="212.6" gradientTransform="matrix(.9959 0 0 -.99452 .034 383.884)" gradientUnits="userSpaceOnUse"><stop offset="0" style="stop-color:#144391;stop-opacity:1"></stop><stop offset=".5" style="stop-color:#212a72;stop-opacity:1"></stop><stop offset="1" style="stop-color:#144391;stop-opacity:1"></stop></linearGradient><linearGradient id="aK" x1="107.8" x2="185.4" y1="294.4" y2="307.1" gradientTransform="matrix(.9959 0 0 -.99452 .034 383.884)" gradientUnits="userSpaceOnUse"><stop offset="0" style="stop-color:#fff;stop-opacity:1"></stop><stop offset=".5" style="stop-color:#d0d0d0;stop-opacity:1"></stop><stop offset="1" style="stop-color:#fff;stop-opacity:1"></stop></linearGradient><linearGradient id="aL" x1="104.4" x2="182" y1="315.1" y2="327.8" gradientTransform="matrix(.9959 0 0 -.99452 .034 383.884)" gradientUnits="userSpaceOnUse"><stop offset="0" style="stop-color:#fff;stop-opacity:1"></stop><stop offset=".5" style="stop-color:#d0d0d0;stop-opacity:1"></stop><stop offset="1" style="stop-color:#fff;stop-opacity:1"></stop></linearGradient><linearGradient id="aM" x1="99" x2="178.2" y1="345.4" y2="358.9" gradientTransform="matrix(.9959 0 0 -.99452 .034 383.884)" gradientUnits="userSpaceOnUse"><stop offset="0" style="stop-color:#144391;stop-opacity:1"></stop><stop offset=".5" style="stop-color:#212a72;stop-opacity:1"></stop><stop offset="1" style="stop-color:#144391;stop-opacity:1"></stop></linearGradient><linearGradient id="aN" x1="102.7" x2="182.2" y1="325.2" y2="335.8" gradientTransform="matrix(.9959 0 0 -.99452 .034 383.884)" gradientUnits="userSpaceOnUse"><stop offset="0" style="stop-color:#ffdd04;stop-opacity:1"></stop><stop offset=".5" style="stop-color:#ca9800;stop-opacity:1"></stop><stop offset="1" style="stop-color:#ffdd04;stop-opacity:1"></stop></linearGradient><linearGradient id="aO" x1="99.5" x2="179.5" y1="339.2" y2="351.6" gradientTransform="matrix(.9959 0 0 -.99452 .034 383.884)" gradientUnits="userSpaceOnUse"><stop offset="0" style="stop-color:#fdc301;stop-opacity:1"></stop><stop offset=".5" style="stop-color:#c78800;stop-opacity:1"></stop><stop offset="1" style="stop-color:#fdc301;stop-opacity:1"></stop></linearGradient><linearGradient id="aP" x1="104" x2="181.7" y1="316.4" y2="329.6" gradientTransform="matrix(.9959 0 0 -.99452 .034 383.884)" gradientUnits="userSpaceOnUse"><stop offset="0" style="stop-color:#144391;stop-opacity:1"></stop><stop offset=".5" style="stop-color:#212a72;stop-opacity:1"></stop><stop offset="1" style="stop-color:#144391;stop-opacity:1"></stop></linearGradient><linearGradient id="aQ" x1="97.8" x2="176" y1="331.2" y2="341.6" gradientTransform="matrix(.9959 0 0 -.99452 .034 383.884)" gradientUnits="userSpaceOnUse"><stop offset="0" style="stop-color:#ffdd04;stop-opacity:1"></stop><stop offset=".5" style="stop-color:#ca9800;stop-opacity:1"></stop><stop offset="1" style="stop-color:#ffdd04;stop-opacity:1"></stop></linearGradient><linearGradient id="aR" x1="105.2" x2="185.1" y1="302.5" y2="314.9" gradientTransform="matrix(.9959 0 0 -.99452 .034 383.884)" gradientUnits="userSpaceOnUse"><stop offset="0" style="stop-color:#fdc301;stop-opacity:1"></stop><stop offset=".5" style="stop-color:#c78800;stop-opacity:1"></stop><stop offset="1" style="stop-color:#fdc301;stop-opacity:1"></stop></linearGradient><linearGradient id="aS" x1="102.1" x2="180.7" y1="326" y2="336.5" gradientTransform="matrix(.9959 0 0 -.99452 .034 383.884)" gradientUnits="userSpaceOnUse"><stop offset="0" style="stop-color:#009e4c;stop-opacity:1"></stop><stop offset=".5" style="stop-color:#007e38;stop-opacity:1"></stop><stop offset="1" style="stop-color:#009e4c;stop-opacity:1"></stop></linearGradient><linearGradient id="aT" x1="58.2" x2="156.3" y1="345.5" y2="363.6" gradientTransform="matrix(.9959 0 0 -.99452 .034 383.884)" gradientUnits="userSpaceOnUse"><stop offset="0" style="stop-color:#fff;stop-opacity:1"></stop><stop offset="1" style="stop-color:#a8a8a7;stop-opacity:1"></stop></linearGradient><linearGradient id="aU" x1="195.2" x2="166.8" y1="341.1" y2="327.9" gradientTransform="matrix(.9959 0 0 -.99452 .034 383.884)" gradientUnits="userSpaceOnUse"><stop offset="0" style="stop-color:#d0d0d0;stop-opacity:1"></stop><stop offset="1" style="stop-color:#fff;stop-opacity:1"></stop></linearGradient><linearGradient id="aV" x1="94" x2="176.2" y1="322.6" y2="337.7" gradientTransform="matrix(.9959 0 0 -.99452 .034 383.884)" gradientUnits="userSpaceOnUse"><stop offset="0" style="stop-color:#fff;stop-opacity:1"></stop><stop offset=".5" style="stop-color:#a8a8a7;stop-opacity:1"></stop><stop offset="1" style="stop-color:#fff;stop-opacity:1"></stop></linearGradient><linearGradient id="aW" x1="89.7" x2="176.7" y1="344.6" y2="360.7" gradientTransform="matrix(.9959 0 0 -.99452 .034 383.884)" gradientUnits="userSpaceOnUse"><stop offset="0" style="stop-color:#fff;stop-opacity:1"></stop><stop offset=".5" style="stop-color:#a8a8a7;stop-opacity:1"></stop><stop offset="1" style="stop-color:#fff;stop-opacity:1"></stop></linearGradient><linearGradient id="aX" x1="34.7" x2="70.6" y1="331.3" y2="342.9" gradientTransform="matrix(.9959 0 0 -.99452 .034 383.884)" gradientUnits="userSpaceOnUse"><stop offset="0" style="stop-color:#d0d0d0;stop-opacity:1"></stop><stop offset="1" style="stop-color:#fff;stop-opacity:1"></stop></linearGradient></defs><path d="M122.332 267.129h4.781l-2.39-5.672Zm7.07 5.172h-9.261l-1.196 2.98c0 .102-.199.2-.297.2h-6.175c-.301 0-.399-.297-.301-.497l12.75-26.554c.098-.297.398-.297.496 0l12.648 26.554c.102.2 0 .496-.296.496h-6.575c-.101 0-.3 0-.3-.199l-1.293-2.98Zm-33.66-23.371c-.199 0-.3.195-.3.297v25.855c0 .2.199.3.3.3h6.473c.2 0 .297-.198.297-.3v-8.848h9.363c.2 0 .297-.199.297-.3v-5.372c0-.199-.2-.296-.297-.296h-9.363v-5.371h11.156c.098 0 .297 0 .297-.2l2.492-5.37c.098-.2 0-.497-.3-.497H95.741Zm-22.707 0c-.2 0-.3.195-.3.297v25.855c0 .2.199.3.3.3H91.56c.199 0 .296-.198.296-.3v-5.27c0-.199-.199-.296-.296-.296H79.805v-4.575h9.261c.2 0 .301-.199.301-.3v-4.973c0-.2-.199-.297-.3-.297h-9.262v-4.375h11.254c.199 0 .3-.2.3-.3v-5.372c0-.199-.199-.297-.3-.297H73.035ZM45.25 265.137c0 7.164 4.879 10.644 11.55 10.644 6.673 0 11.552-3.48 11.552-10.644v-16.012c0-.195-.2-.297-.297-.297h-6.473c-.2 0-.3.2-.3.297v15.914c0 3.082-1.395 4.774-4.481 4.774-2.39 0-4.383-2.09-4.383-4.477v-16.11c0-.199-.2-.296-.297-.296h-6.473c-.199 0-.3.195-.3.297v16.011ZM71.242 305.02h6.274l-3.188-7.262Zm9.16 6.664h-12.05l-1.59 3.878c0 .196-.2.297-.399.297h-8.07c-.297 0-.496-.296-.398-.597l16.535-34.41c.199-.399.496-.399.597 0l16.43 34.41c.102.3 0 .597-.398.597h-8.563c-.2 0-.3-.101-.398-.296Zm-26.687 4.773c.597.496.695.297.695-.102v-34.507c0-.2-.2-.399-.398-.399h-7.77c-.297 0-.394.2-.394.399v16.804l-21.711-17.8c-.598-.497-.7-.2-.7.101v34.508c0 .2.2.398.399.398h7.77c.199 0 .398-.199.398-.398v-16.707l21.71 17.8Zm151.676 0c.597.496.695.297.695-.102v-34.507c0-.2-.2-.399-.399-.399h-7.765c-.3 0-.399.2-.399.399v16.804l-21.71-17.8c-.598-.497-.7-.2-.7.101v34.508c0 .2.2.398.399.398h7.77c.198 0 .398-.199.398-.398v-16.707l21.71 17.8Zm4.68-6.066c-.2.199-.2.394 0 .593 2.39 2.586 6.574 5.371 13.445 5.371 6.87 0 13.047-4.574 13.047-10.937 0-6.367-2.29-8.156-9.262-10.445l-4.582-1.493c-1.692-.593-2.39-1.19-2.39-2.484 0-1.293 1.097-2.387 3.386-2.387s4.48.996 5.875 2.387c1.394 1.39 3.984-3.976 5.082-5.07 1.094-1.098.2-.399 0-.598-2.094-2.289-5.68-4.277-11.453-4.277-5.778 0-11.754 3.48-11.754 10.242 0 6.766 3.586 8.754 8.566 10.344l4.082 1.394c2.29.793 3.387 1.492 3.387 2.98 0 1.493-1.594 2.786-4.383 2.786s-5.379-1.692-7.07-3.578c-.2-.2-.5-.2-.598 0l-5.379 5.37Zm-112.837 5.07c0 .2.2.398.399.398H106c.2 0 .398-.199.398-.398v-26.254h8.665c.199 0 .398-.2.398-.398v-6.864c0-.199-.2-.398-.398-.398H84.785c-.297 0-.496.3-.398.598l3.289 6.863c0 .199.199.297.394.297h9.067v26.257Zm64.04-16.809c0-5.468-3.29-9.644-9.067-9.644-5.773 0-9.062 4.176-9.062 9.644 0 5.473 3.289 9.649 9.062 9.649 5.777 0 9.066-4.278 9.066-9.649m-27.59 0c0-10.34 8.566-17.601 18.523-17.601 9.961 0 18.527 7.262 18.527 17.601 0 10.344-8.566 17.703-18.527 17.703-9.957 0-18.523-7.257-18.523-17.703M120.34 281.45c-.2 0-.399.2-.399.399v33.613c0 .2.2.398.399.398h8.367c.2 0 .398-.199.398-.398v-33.613c0-.2-.199-.399-.398-.399ZM92.453 345.594h6.274l-3.184-7.258Zm9.262 6.664h-12.05l-1.595 3.879c0 .199-.195.297-.394.297h-8.07c-.297 0-.497-.297-.399-.594l16.535-34.41c.2-.399.496-.399.598 0l16.43 34.41c.101.297 0 .594-.399.594h-8.562c-.2 0-.301-.098-.399-.297Zm34.957-4.477c-1.492.7-3.387 1.395-6.672 1.395-6.074 0-9.262-4.477-9.262-9.946s3.086-9.648 8.766-9.648c5.676 0 5.574 1.293 7.27 3.285.199.195.496.195.695 0l5.379-5.472q.299-.3 0-.598c-2.989-3.379-7.57-5.367-13.145-5.367-9.96 0-18.426 7.257-18.426 17.601s8.465 17.703 18.625 17.703c10.157 0 11.848-2.09 15.036-4.773v-14.52c0-.199-.2-.398-.399-.398H130.4c-.2 0-.399.2-.399.398v6.266c0 .2.2.395.398.395h6.375v3.484Zm48.5-25.855c-.2 0-.399.199-.399.398v33.613c0 .301.2.399.399.399h24.004c.199 0 .398-.2.398-.399v-6.863c0-.297-.199-.394-.398-.394h-15.238v-5.97h12.05c.2 0 .399-.198.399-.397v-6.465c0-.2-.2-.399-.399-.399h-12.05v-5.668h14.539c.199 0 .398-.199.398-.398v-6.86c0-.199-.2-.398-.398-.398h-23.305Zm-36.05 21.183c0 9.25 6.374 13.825 14.937 13.825 8.566 0 14.941-4.575 14.941-13.825v-20.687c0-.2-.2-.399-.398-.399h-8.368c-.199 0-.398.2-.398.399v20.586c0 3.879-1.89 6.168-5.777 6.168-3.184 0-5.676-2.688-5.676-5.867v-20.887c0-.2-.2-.399-.399-.399h-8.363c-.2 0-.398.2-.398.399v20.687ZM52.02 321.926c-.2 0-.399.199-.399.398v33.613c0 .301.2.399.399.399h24.003c.2 0 .399-.2.399-.399v-6.863c0-.297-.2-.394-.399-.394H60.785v-5.97h12.05c.2 0 .4-.198.4-.397v-6.465c0-.2-.2-.399-.4-.399h-12.05v-5.668h14.54c.198 0 .398-.199.398-.398v-6.86c0-.199-.2-.398-.399-.398H52.02Zm-28.184 0c-.2 0-.398.199-.398.398v33.613c0 .301.199.399.398.399H46.84c.2 0 .398-.2.398-.399v-6.863c0-.297-.199-.394-.398-.394H32.602v-26.258c0-.2-.2-.399-.399-.399h-8.367ZM211.965 323.117v-.894s0-.098.097-.098h4.782s.097 0 .097.098v.894s0 .102-.097.102h-1.696v5.27s0 .1-.097.1h-1.094s-.102 0-.102-.1v-5.27h-1.69s-.102 0-.102-.102ZM218.238 321.926h.098l3.09 3.281h.199l3.086-3.281h.098v6.465c0 .097 0 .199-.2.199h-.992s-.199 0-.199-.2v-3.68l-1.895 2.188h-.296l-1.895-2.187v3.68c0 .097 0 .199-.2.199h-.995c-.098 0-.2 0-.2-.2v-6.464ZM32.7 42.066a.784.784 0 0 0-.798-.793h-.297c-1.593.696-4.882 2.485-7.468 5.668-.5.598-.797 1.391-.797 2.29v221.078a3.17 3.17 0 0 0 1.094 2.386l6.773 5.57c.496.4 1.293 0 1.293-.597V42.066Zm0 0" style="stroke:none;fill-rule:nonzero;fill:#3e5566;fill-opacity:1"></path><path d="M79.406 47.738c-3.383 5.367-6.77 10.739-9.957 16.211-3.187 5.367-6.472 10.938-9.86 16.406l.2.598h.996c2.39-1.094 4.781-2.187 7.168-3.379 12.05-5.87 24.402-11.937 34.559-12.332l1.097-.5v-.597C96.74 57.883 89.465 52.21 81.7 47.14l-1.097-.2-1.094.797Zm0 0" style="stroke:none;fill-rule:nonzero;fill:url(#a)"></path><path d="M156.39 66.137c-3.984 4.375-7.667 7.855-12.546 12.23l-.2.695 1.395 1.094c9.758 4.18 18.324 6.266 26.094 6.266q4.332.001 8.363-.895l.996-.695-.199-.695c-7.867-5.172-15.137-11.14-21.91-17.703l-1.196-.598-.894.398Zm0 0" style="stroke:none;fill-rule:nonzero;fill:url(#b)"></path><path d="M175.91 106.512h-2.289l-.898.894c.199 2.29 1.097 4.578 2.59 6.567 1.695 2.187 4.183 3.379 6.972 3.379 3.485 0 6.871-1.887 8.965-5.07 1.988-2.684 2.984-5.47 2.887-8.255l-.899-.695c-5.574 2.188-11.449 3.281-17.328 3.18m0 0" style="stroke:none;fill-rule:nonzero;fill:url(#c)"></path><path d="M179.496 85.527c-4.879 7.66-9.957 14.223-15.535 19.793v.696l1.094.597c2.789.399 4.882.598 7.57.696l.895-.895c-.2-2.785.699-5.57 2.39-7.957 1.895-2.785 4.781-4.375 7.969-4.277 1.492 0 2.988.398 4.281 1.195 2.988 1.89 4.684 4.672 4.98 7.957l.997.594c2.988-1.192 5.976-2.285 8.465-3.68l1.593-1.492-.398-.793c-7.57-3.98-14.938-8.254-22.11-12.93l-1.093-.199-.996.695Zm0 0" style="stroke:none;fill-rule:nonzero;fill:url(#d)"></path><path d="M163.063 106.313c-5.575 5.37-11.055 9.449-16.731 13.624v.7c-.098 0 1.195 1.191 1.195 1.191 9.262 4.973 16.332 7.063 24.004 7.063 3.582 0 7.367-.5 11.45-1.395l1.195-.695v-.696a196 196 0 0 1-19.121-19.394l-1.094-.695-.996.296Zm0 0" style="stroke:none;fill-rule:nonzero;fill:url(#e)"></path><path d="M142.848 79.164c-4.68 4.078-9.461 7.559-15.04 11.836v.695l1.497 1.39c2.09 1.294 4.578 2.587 7.07 3.782l.895-.597c-.497-3.082 0-5.57 1.296-6.762.797-.7 1.692-.996 2.688-.996 3.086 0 6.871 2.984 10.059 7.558 1.593 2.29 2.59 4.774 2.988 7.063l.597.695.497.695c2.69.797 5.18 1.395 7.57 1.79l.996-.395v-.598c-6.274-7.261-12.45-15.613-19.024-25.062l-1.292-1.094-.797.098Zm0 0" style="stroke:none;fill-rule:nonzero;fill:url(#f)"></path><path d="M150.117 111.883c-3.484 0-7.867-3.184-10.953-7.957-1.394-2.086-2.293-4.473-2.789-6.961l.398-.297.399-.3c4.18 2.089 10.457 4.874 17.129 6.964l.597.695.497.696c.199 2.984-.895 5.27-2.887 6.664-.7.496-1.594.695-2.488.695Zm0 0" style="stroke:none;fill-rule:nonzero;fill:#0b0700;fill-opacity:1"></path><path d="M58.492 82.047c-6.472 10.144-12.644 19.691-20.914 27.351l-.297.993 1.094.3c3.488-.5 6.477-1.195 9.762-2.09l.996-1.292c.297-2.586 1.293-5.07 2.789-7.16 4.383-6.266 9.66-9.051 13.047-9.051.894 0 1.89.199 2.687.597 2.39 1.192 3.684 3.578 3.684 6.864l.996.496a155 155 0 0 0 8.766-5.075l1.492-1.492-.2-.593c-7.269-3.48-14.44-7.063-21.511-10.942h-.996l-1.196.996Zm0 0" style="stroke:none;fill-rule:nonzero;fill:url(#g)"></path><path d="M82.395 92.59 81 94.082a144 144 0 0 0-4.777 8.55c-4.184 7.462-8.868 15.915-15.239 24.864l.2.598h1.093c4.582-1.79 9.364-4.477 14.442-7.36 9.062-4.972 19.32-10.742 29.68-12.53l1.394-.696v-.598c-6.176-4.87-13.348-9.05-24.402-14.32zm0 0" style="stroke:none;fill-rule:nonzero;fill:url(#h)"></path><path d="m83.191 139.531-1.293 1.492C75.824 152.16 69.45 163.5 60.883 174.637v.597h1.195c8.067-2.488 15.438-6.761 22.61-10.941 7.468-4.273 14.539-8.453 21.808-10.34l1.297-.797v-.597c-7.473-5.172-15.438-9.547-23.805-13.227l-.996.098Zm0 0" style="stroke:none;fill-rule:nonzero;fill:url(#i)"></path><path d="m95.742 131.574-.5.696-.496.699c.098 3.18 1.395 5.867 3.484 7.558 2.192 1.688 4.98 2.684 8.067 2.684 3.683 0 7.27-1.395 9.562-3.68 2.688-2.683 3.98-6.367 3.586-10.144l-.597-.598-.598-.594c-1.895-.3-3.687-.398-5.578-.5-5.777.102-11.555 1.395-16.93 3.782Zm0 0" style="stroke:none;fill-rule:nonzero;fill:url(#j)"></path><path d="M106.297 108.203c-9.262 8.754-16.633 18.598-23.305 30.633l.2.594h.996c3.785-2.684 7.37-4.973 10.558-6.461l.496-.7.5-.792c.297-2.985 1.692-5.868 3.883-8.356 2.488-2.785 5.875-4.277 8.965-4.375 2.887 0 5.574 1.39 7.367 3.879 1.098 1.492 1.895 3.379 2.39 5.57l.598.594.598.598c3.285.695 6.473 2.187 9.262 3.68h.898c0-.098.2-.797.2-.797-6.876-10.739-13.247-18.297-20.72-24.465l-1.19-.297-1.395.695Zm0 0" style="stroke:none;fill-rule:nonzero;fill:url(#k)"></path><path d="m138.465 137.344-.895.496c.399 2.488 1.395 5.074 2.985 7.558 3.289 5.27 7.472 8.75 10.656 8.75.797 0 1.496-.195 2.094-.593 1.992-1.293 2.988-4.078 2.988-7.559l-.5-.598-.496-.695c-6.074-1.988-11.652-4.676-16.832-7.36m0 0" style="stroke:none;fill-rule:nonzero;fill:url(#l)"></path><path d="m37.281 178.02.399.597c1.293.196 2.789.297 4.28.196 4.981 0 11.157-.993 17.927-2.883l1.297-.797-.2-.696c-8.464-4.972-16.132-11.238-22.609-18.597l-.996-.399v22.579Zm0 0" style="stroke:none;fill-rule:nonzero;fill:url(#m)"></path><path d="M128.605 133.066c-8.265 6.664-15.039 13.028-20.812 19.493v.597l1.195.297c2.985-.594 6.075-.894 9.063-.992 12.246 0 22.11 5.566 29.578 9.746h.797l.199-.695c-5.777-8.258-11.453-17.11-17.828-27.45l-1.293-1.195-.899.102Zm0 0" style="stroke:none;fill-rule:nonzero;fill:url(#n)"></path><path d="M200.41 140.824c-4.082 8.95-8.863 17.504-14.242 25.656l.2.7 1.097.199c4.68-1.195 10.258-3.383 15.437-5.969l.2-.695c-1.196-6.863-1.696-13.926-1.696-20.887zm0 0" style="stroke:none;fill-rule:nonzero;fill:url(#o)"></path><path d="M164.457 147.887c-4.977 4.87-9.957 9.445-15.832 13.722v.696c-.102 0 1.395 1.195 1.395 1.195 7.167 3.777 15.035 5.668 23.101 5.668 4.086 0 8.07-.398 12.25-1.395l.996-.593v-.7c-7.367-5.27-13.941-11.433-19.816-18.296l-1.098-.598-.996.398Zm0 0" style="stroke:none;fill-rule:nonzero;fill:url(#p)"></path><path d="m49.93 200.895-.899.992c.5 3.281 2.192 6.265 4.782 7.957 1.992 1.293 4.28 2.09 6.671 2.09 4.383 0 8.266-2.586 11.055-7.063 1.895-3.281 2.89-6.465 2.79-9.45l-.997-.597a70.8 70.8 0 0 1-23.402 6.168Zm0 0" style="stroke:none;fill-rule:nonzero;fill:url(#q)"></path><path d="M138.266 89.207c-1.692 1.395-1.993 4.277-1.493 7.36 5.477 2.687 11.852 5.472 18.125 7.359-.3-2.586-1.394-5.367-3.09-8.055-3.183-4.672-7.167-7.758-10.554-7.758-1.094 0-2.191.399-2.988 1.094m0 0" style="stroke:none;fill-rule:nonzero;fill:url(#r)"></path><path d="m142.148 178.02-.796.695c.5 2.586 1.793 5.57 3.585 8.254 2.989 4.676 7.668 7.16 10.856 7.062.7 0 1.496-.101 2.094-.496 1.793-1.097 2.687-3.68 2.59-6.566l-.5-.696-.497-.695c-2.988-1.094-5.878-2.488-8.863-3.879-2.59-1.195-5.281-2.488-8.367-3.781Zm0 0" style="stroke:none;fill-rule:nonzero;fill:url(#s)"></path><path d="m175.016 147.488-.899.992c.2 2.887 1.395 5.274 3.688 7.063 1.593 1.293 3.683 2.09 5.773 2.09 3.29 0 6.375-1.89 8.367-5.074 1.692-2.684 2.489-5.868 2.29-8.75l-.997-.598c-6.172 2.586-12.047 3.879-18.125 4.277Zm0 0" style="stroke:none;fill-rule:nonzero;fill:url(#t)"></path><path d="M126.813 91.695c-6.176 4.575-12.747 9.348-19.122 15.215v.598l1.196.398c.894-.199 1.89-.199 2.886-.199 11.055 0 21.614 6.066 30.079 10.938 1.195.699 2.289 1.394 3.484 1.992h.898l.098-.7c-1.594-2.484-3.086-5.07-4.68-7.558-4.183-6.86-8.168-13.426-12.449-19.39l-1.594-1.395h-.894Zm0 0" style="stroke:none;fill-rule:nonzero;fill:url(#u)"></path><path d="M115.559 139.234c-3.985 3.977-11.852 5.168-17.032.993-2.187-1.891-3.382-4.774-3.285-7.957-3.785 1.69-7.965 4.378-12.05 7.16 8.663 3.78 16.93 8.355 24.699 13.726 5.578-6.265 12.546-12.93 21.511-20.187-3.386-1.793-6.87-3.485-10.656-4.18.7 3.879-.496 7.66-3.285 10.445Zm0 0" style="stroke:none;fill-rule:nonzero;fill:url(#v)"></path><path d="M59.79 128.988c-6.177 8.555-12.65 17.106-22.11 25.559l-.399.996.996.398c3.684-.101 6.672-.398 10.059-.894l.996-1.195c.398-3.082 1.594-5.965 3.586-8.356 3.484-4.074 7.668-6.562 11.352-6.562a7.84 7.84 0 0 1 4.183 1.195c2.09 1.191 3.188 3.281 3.387 5.965l.894.597c2.989-1.492 5.977-3.48 9.164-5.668l1.293-1.593-.199-.594c-7.168-3.184-14.14-6.766-20.812-10.742h-1.098c0-.098-1.293.894-1.293.894m0 0" style="stroke:none;fill-rule:nonzero;fill:url(#w)"></path><path d="m37.281 132.969.399.496h1.793c5.675 0 12.449-1.395 20.316-4.375l1.293-.996v-.598c-8.664-5.07-16.828-11.137-22.707-16.805l-1.094-.3zm0 0" style="stroke:none;fill-rule:nonzero;fill:url(#x)"></path><path d="M171.133 44.355a93.3 93.3 0 0 1-13.946 20.688v.894l1.297.497c1.793.101 3.582.296 5.375.296.899 0 1.696 0 2.493-.097l.796-.895c-.398-2.289 0-4.675 1.094-6.761 1.594-3.485 4.98-5.872 8.465-5.872 1.195 0 2.39.2 3.586.797 3.086 1.493 5.18 3.98 5.875 7.16l.996.5a42.3 42.3 0 0 0 7.27-4.578l1.195-1.492-.598-.695c-7.168-2.586-16.133-7.059-21.808-10.938h-1.098c0-.101-.992.496-.992.496m0 0" style="stroke:none;fill-rule:nonzero;fill:url(#y)"></path><path d="M147.727 162.305c-5.38 3.68-10.457 7.757-15.239 12.132v.696l1.297.797c2.59.797 4.88 1.691 7.567 2.687l.796-.699c-.496-2.684 0-4.773.997-5.766.699-.597 1.593-.894 2.59-.894 2.988 0 6.773 2.586 10.257 7.058 2.192 2.786 3.09 5.274 3.387 7.16l.598.7.5.695c2.984.992 5.476 1.293 8.363 1.59l1.097-.297v-.598c-6.773-6.664-13.246-14.52-19.917-24.066l-1.497-1.293h-.796Zm0 0" style="stroke:none;fill-rule:nonzero;fill:url(#z)"></path><path d="M182.98 127.398c-5.476 6.864-11.25 13.325-17.527 19.391v.7l1.098.495c1.992.2 3.984.496 5.972.399h1.696l.996-.996c0-2.387.996-4.871 2.59-6.86 2.39-2.886 5.375-4.578 8.363-4.578 1.793 0 3.488.7 4.883 1.89 1.293 1.095 2.187 2.985 2.387 5.27l.996.598c2.093-.894 4.086-1.988 6.175-2.984l.996-1.094-.398-.793c-5.578-3.68-10.855-7.758-15.934-12.035l-.898-.2-1.195.797Zm0 0" style="stroke:none;fill-rule:nonzero;fill:url(#A)"></path><path d="M202.602 100.246c-5.875 8.754-11.95 17.406-18.426 25.66v.696l.996.199c6.078-1.59 11.851-3.977 17.332-6.961l.598-.895c.894-6.465 1.191-13.226 1.093-20.289l-1.593 1.492Zm0 0" style="stroke:none;fill-rule:nonzero;fill:url(#B)"></path><path d="m49.031 107.406-.996 1.293c0 3.582 1.098 6.465 3.188 8.059 1.394.992 2.988 1.492 4.582 1.492 4.582 0 9.46-3.582 13.047-9.648 1.992-3.184 3.085-6.465 3.285-9.45l-.895-.496c-7.57 3.977-14.937 6.563-22.21 8.75m0 0" style="stroke:none;fill-rule:nonzero;fill:url(#C)"></path><path d="m94.148 86.027-.597.696-.5.695c0 3.082 1.394 5.77 3.687 7.855 2.387 2.188 5.875 3.48 9.461 3.48 3.383 0 6.371-1.19 8.364-3.081 2.093-2.188 3.09-5.371 2.988-8.55l-.496-.7-.598-.695c-3.488-1.094-7.074-1.692-10.758-1.692-3.984 0-7.867.7-11.652 1.992Zm0 0" style="stroke:none;fill-rule:nonzero;fill:url(#D)"></path><path d="m37.18 87.715.5.5c4.879-.102 12.347-2.387 20.812-6.168l1.297-1.094-.2-.598c-8.167-4.671-15.534-9.746-21.312-14.918l-.996-.195v22.473Zm0 0" style="stroke:none;fill-rule:nonzero;fill:url(#E)"></path><path d="M145.336 120.637c-.598.394-1.195.894-1.793 1.293-4.379 3.18-8.961 6.363-13.84 10.34v.699c-.101 0 1.192 1.191 1.192 1.191.996.598 2.093 1.094 3.187 1.79 1.195.597 2.39 1.292 3.688 1.89l.894-.598c-.297-2.683.2-4.773 1.395-5.965.894-.894 1.992-1.394 3.187-1.394 2.39 0 6.375 2.09 9.957 8.254 1.195 2.09 1.992 4.277 2.192 6.664l.5.597.496.598a48.6 48.6 0 0 0 8.168 1.89l.996-.3v-.598c-7.27-8.652-13.246-17.8-17.926-25.16l-1.297-1.191h-.894Zm0 0" style="stroke:none;fill-rule:nonzero;fill:url(#F)"></path><path d="M106.695 154.05c-10.355 11.735-15.933 22.477-21.41 33.516l.2.598h.894c3.187-2.387 6.375-5.074 9.96-6.96l.4-.798.495-.797c.2-2.484 1.395-5.27 2.887-7.855 2.988-4.574 7.074-7.36 10.957-7.36 2.29 0 4.184.797 6.074 2.485 1.895 1.594 2.989 3.98 3.285 6.367l.598.496.598.598c3.687 0 7.074.496 9.96 1.094l.895-.2v-.695c-6.87-7.86-14.738-14.918-23.304-21.086l-1.192-.2-1.195.798Zm0 0" style="stroke:none;fill-rule:nonzero;fill:url(#G)"></path><path d="M122.531 49.23c-5.379 3.48-12.949 8.75-19.023 14.817v.695l1.195.5c10.059.395 20.117 5.27 29.777 10.043 2.79 1.293 5.579 2.684 8.368 3.977h.894c0-.098.102-.895.102-.895a172 172 0 0 1-5.078-7.758c-3.985-6.164-8.368-13.027-13.547-19.89l-1.793-1.59h-.895Zm0 0" style="stroke:none;fill-rule:nonzero;fill:url(#H)"></path><path d="M194.434 56.984c-4.778 10.84-9.461 19.692-14.04 27.153v.695c.098 0 1.293.2 1.293.2 6.274-1.59 13.446-3.778 19.422-7.262l.399-.793c-2.094-8.852-4.684-16.012-5.88-21.582l-1.194 1.492Zm0 0" style="stroke:none;fill-rule:nonzero;fill:url(#I)"></path><path d="M62.676 54.5c-4.383 2.484-8.762 4.973-14.043 6.863l-.996 1.39c0 2.884.996 5.173 2.691 6.466 1.492 1.191 3.188 1.691 5.078 1.691 4.582 0 9.461-3.582 12.746-9.45 1.895-3.28 2.891-7.062 2.692-10.241l-.996-.598a234 234 0 0 0-7.172 3.879m0 0" style="stroke:none;fill-rule:nonzero;fill:url(#J)"></path><path d="m180.293 187.367-.797 1.094c.996 5.172 5.578 8.851 10.758 8.754 3.582 0 6.871-1.594 8.465-4.38 1.691-2.784 2.191-6.362 1.394-9.546l-1.195-.598c-5.281 1.793-11.652 3.68-18.523 4.676Zm0 0" style="stroke:none;fill-rule:nonzero;fill:url(#K)"></path><path d="M102.414 65.242c-6.973 7.258-13.547 16.012-20.219 26.75l.2.598h.996c3.488-2.29 6.273-3.977 9.761-5.172l.496-.598.5-.695c.297-2.586 1.293-5.27 3.188-7.36 1.988-2.288 4.578-3.578 7.367-3.578 2.988 0 6.074 1.59 8.664 4.473 1.695 1.79 2.692 3.88 3.09 6.168l.695.695.5.598c3.184 1.094 5.875 2.586 9.262 4.574h.895v-.797c-6.871-9.347-14.54-18-23.106-25.757l-1.195-.399Zm0 0" style="stroke:none;fill-rule:nonzero;fill:url(#L)"></path><path d="M185.371 167.773c-4.578 6.965-9.758 13.625-15.434 19.692v.7l1.196.495h1.691c2.29 0 4.383 0 6.774-.297l.797-1.093c-.2-2.489.496-4.973 1.792-7.063 1.79-2.488 4.481-3.977 7.47-3.977 1.792 0 3.484.497 5.077 1.391 1.993 1.094 3.387 2.883 4.184 5.07l1.195.598c.895-.398 1.793-.598 2.59-.992 2.09-.7 3.781-1.293 5.574-1.89l.7-.696-.797-.797c-7.27-3.082-14.145-7.062-20.618-11.637l-1.093-.297-.996.696Zm0 0" style="stroke:none;fill-rule:nonzero;fill:url(#M)"></path><path d="m167.246 65.637-.797.898c.5 2.582 1.895 4.774 3.887 6.363 2.289 1.891 4.578 2.786 6.871 2.883 3.785 0 7.168-2.785 9.063-7.656.894-2.09 1.195-4.375.894-6.664l-1.094-.598c-5.777 2.785-12.05 4.278-18.824 4.676Zm0 0" style="stroke:none;fill-rule:nonzero;fill:url(#N)"></path><path d="M177.406 140.426c-1.793 2.09-2.789 4.875-2.789 7.656 5.977-.297 12.348-1.687 19.121-4.473-.199-2.386-.996-4.476-2.59-5.867-1.394-1.293-3.285-1.992-5.18-2.09-2.886 0-6.073 1.59-8.562 4.774m0 0" style="stroke:none;fill-rule:nonzero;fill:url(#O)"></path><path d="M148.523 162.305c6.075-4.375 11.157-9.149 16.832-14.72-3.187-.495-6.472-1.292-9.562-2.187.2 3.48-.797 6.563-2.688 7.758-3.085 2.188-8.566-2.09-12.152-8.054a22.6 22.6 0 0 1-2.887-7.559c-2.789-1.594-5.675-3.086-8.562-4.574 6.77 10.738 12.844 20.484 19.02 29.238Zm0 0" style="stroke:none;fill-rule:nonzero;fill:url(#P)"></path><path d="M96.938 78.367a13.5 13.5 0 0 0-3.29 8.356c7.57-2.688 15.836-2.785 23.504-.301-.398-2.684-1.492-5.168-3.285-7.16-2.691-3.082-5.976-4.574-9.164-4.574-2.789 0-5.476 1.195-7.668 3.68Zm0 0" style="stroke:none;fill-rule:nonzero;fill:url(#Q)"></path><path d="m97.234 179.512-.496.793-.5.797c.2 3.68 2.39 6.562 5.977 8.156 1.594.695 3.187 1.094 4.781 1.094 3.98 0 8.067-2.387 11.453-6.665 2.188-2.785 3.285-6.164 3.086-9.546l-.597-.496-.5-.399c-7.668 0-15.434 1.988-23.301 6.266Zm0 0" style="stroke:none;fill-rule:nonzero;fill:url(#R)"></path><path d="M181.688 180.008c-1.395 1.988-2.192 4.875-1.793 7.758 7.37-.895 13.94-2.985 19.52-4.875a10.32 10.32 0 0 0-4.583-5.668c-1.594-.993-3.484-1.493-5.375-1.59-3.187 0-6.078 1.691-7.867 4.375Zm0 0" style="stroke:none;fill-rule:nonzero;fill:url(#S)"></path><path d="M168.941 188.563c-5.68 5.867-10.957 10.44-16.734 14.12l-.2.696c11.653 6.363 25.098 7.16 41.63 1.89v-.597c-8.266-4.176-15.832-9.649-22.504-16.012l-1.196-.496Zm0 0" style="stroke:none;fill-rule:nonzero;fill:url(#T)"></path><path d="m85.484 188.063-1.394 1.593c-.399.696-.7 1.39-.996 2.188-4.883 9.746-10.059 19.59-19.719 30.332v.597c23.004-4.773 30.473-14.52 49.496-22.976l-.2-.594c-4.183-1.988-8.366-3.781-12.648-5.57-4.382-1.988-8.964-3.383-13.742-5.668h-.797zm0 0" style="stroke:none;fill-rule:nonzero;fill:url(#U)"></path><path d="M59.79 176.031c-6.376 8.153-12.552 15.91-22.212 23.766l-.297.898 1.196.594c2.289.3 4.382.399 6.574.399 1.293 0 2.586.3 4.082.199l.797-.992c0-2.688.695-5.274 2.289-7.36 2.691-4.078 7.37-6.664 11.953-6.664 1.793 0 3.383.399 4.879 1.094 2.488 1.293 4.183 3.777 4.383 6.96l.996.598c3.382-1.593 6.672-3.582 9.757-5.668l1.395-1.593-.2-.598c-9.558-4.473-16.73-8.55-23.105-12.23l-1.093-.2-1.196.895Zm0 0" style="stroke:none;fill-rule:nonzero;fill:url(#V)"></path><path d="M71.738 98.855c0 2.883-1.195 6.067-3.187 9.45-4.977 8.254-12.149 11.632-17.028 8.054-2.191-1.691-3.187-4.875-2.89-8.254-4.082.993-7.168 1.79-11.352 2.286 5.38 5.273 13.742 11.836 23.801 17.703 9.762-13.625 15.637-26.156 21.313-35.504-3.485 2.187-6.97 4.277-10.657 6.265m0 0" style="stroke:none;fill-rule:nonzero;fill:url(#W)"></path><path d="M99.324 24.96c-5.972 3.981-12.148 10.942-19.02 21.286l.2.695 1.094.2a125 125 0 0 1 9.261-2.29l.5-.593.399-.598c0-2.887.996-5.57 2.789-7.36 1.89-1.788 3.785-2.687 5.875-2.687 2.789 0 5.875 1.692 8.367 4.477 1.492 1.691 2.688 3.879 3.285 6.066l1.293 1.293c3.785 1.196 6.774 2.387 9.164 3.582h.996l.098-.699c-7.668-10.043-15.234-18.098-21.512-23.07l-1.593-.696-1.196.297Zm0 0" style="stroke:none;fill-rule:nonzero;fill:url(#X)"></path><path d="M193.637 103.629c.101 2.586-.793 5.57-2.785 8.254-3.786 5.77-11.454 6.562-15.141 1.691-1.492-1.89-2.39-4.277-2.59-6.664a71 71 0 0 1-9.16-.894c6.574 7.757 13.144 14.62 20.117 20.687 6.176-7.66 12.649-16.91 20.117-27.95-3.484 2.192-7.37 3.583-10.558 4.876m0 0" style="stroke:none;fill-rule:nonzero;fill:url(#Y)" data-source="https://football-logos.cc"></path><path d="M131.492 175.434c-7.469 6.96-13.742 14.918-18.82 23.77l.2.593c16.929-7.555 32.265-.297 39.237 3.582l.2-.695c-4.782-9.649-11.356-18.5-18.426-26.653l-1.395-.898-.894.199Zm0 0" style="stroke:none;fill-rule:nonzero;fill:url(#Z)"></path><path d="m49.332 153.852-.996 1.093c0 3.184.996 5.97 2.887 7.559 1.695 1.492 3.984 2.187 6.273 2.187 4.184 0 8.367-2.484 11.254-6.761 2.492-3.68 3.887-7.758 3.887-11.239l-.899-.496a78.6 78.6 0 0 1-22.406 7.657m0 0" style="stroke:none;fill-rule:nonzero;fill:url(#aa)"></path><path d="M99.324 122.922c-2.586 2.883-3.98 6.266-3.98 9.348 8.465-3.778 16.332-4.672 23.601-3.38a13.66 13.66 0 0 0-2.59-6.464c-1.793-2.489-4.68-3.98-7.668-3.98-3.285 0-6.671 1.593-9.363 4.476m0 0" style="stroke:none;fill-rule:nonzero;fill:url(#ab)"></path><path d="M208.078 180.406c-2.988 8.453-8.863 18.2-14.539 24.168v.594c15.04-4.773 24.3-5.469 24.3-5.469s-4.382-9.449-8.964-20.09l-.797.696Zm0 0" style="stroke:none;fill-rule:nonzero;fill:url(#ac)"></path><path d="M37.281 222.074s11.453 3.68 26.094.7v-.598c-9.164-6.067-17.527-13.028-25-20.887l-1.094-.594zm0 0" style="stroke:none;fill-rule:nonzero;fill:url(#ad)"></path><path d="M69.148 187.465c-6.074-2.98-13.64.2-17.425 5.672-1.696 2.386-2.493 5.27-2.192 8.152 8.465-.594 16.73-2.684 24.399-6.266-.2-3.48-1.993-6.164-4.68-7.558Zm0 0" style="stroke:none;fill-rule:nonzero;fill:#0b0700;fill-opacity:1"></path><path d="M73.832 195.125c.2 2.684-.7 5.965-2.691 9.45-4.778 7.952-12.149 8.253-17.028 4.87-2.691-1.89-4.383-4.87-4.582-8.054-4.082.297-7.867 0-12.25-.598 7.867 8.355 16.633 15.715 26.094 22.078 11.453-12.43 16.531-23.77 22.008-34.707-3.586 2.684-7.469 5.07-11.551 6.961m0 0" style="stroke:none;fill-rule:nonzero;fill:url(#ae)"></path><path d="M199.414 182.992c.899 3.184.598 6.664-1.094 9.547-2.59 4.375-9.363 5.668-13.945 2.387-2.785-1.89-4.18-4.477-4.48-7.063-3.286.399-6.672.5-9.958.301 11.852 11.734 23.7 17.106 23.7 17.106 5.578-5.868 11.953-16.114 15.14-25.56-2.691.895-5.777 1.888-9.363 3.18Zm0 0" style="stroke:none;fill-rule:nonzero;fill:url(#af)"></path><path d="M52.52 145.3c-2.192 2.587-3.489 5.766-3.786 9.15a79.2 79.2 0 0 0 23.504-7.958c0-2.883-1.097-5.27-3.586-6.664-1.297-.793-2.789-1.293-4.382-1.293-3.883 0-8.165 2.488-11.75 6.766m0 0" style="stroke:none;fill-rule:nonzero;fill:url(#ag)"></path><path d="m91.758 43.758-.899 1.094c.301 3.28 1.793 6.066 4.286 8.058 2.59 2.086 5.875 3.281 8.96 3.281 2.692 0 5.079-.894 6.774-2.687 1.992-1.988 2.789-4.774 2.39-7.953l-.597-.7-.598-.695c-3.586-.894-7.27-1.39-10.957-1.39-3.183 0-6.273.297-9.46.793Zm0 0" style="stroke:none;fill-rule:nonzero;fill:url(#ah)"></path><path d="M99.723 171.453c-1.891 2.984-3.086 6.168-3.086 8.754 7.968-4.375 16.035-6.762 24.3-6.664-.199-2.586-1.296-5.371-3.484-7.258a9.38 9.38 0 0 0-6.476-2.586c-4.18 0-8.266 2.883-11.352 7.656Zm0 0" style="stroke:none;fill-rule:nonzero;fill:url(#ai)"></path><path d="M139.563 130.977c-1.497 1.492-1.895 3.878-1.497 6.664 5.579 2.984 11.356 5.77 17.727 7.757-.2-2.683-.996-5.27-2.29-7.457-2.589-4.379-6.573-8.457-10.358-8.457-1.293 0-2.59.598-3.485 1.493Zm0 0" style="stroke:none;fill-rule:nonzero;fill:url(#aj)"></path><path d="M152.008 203.379c6.476-3.977 12.152-9.149 17.828-15.117-3.387-.2-6.672-.797-9.86-1.89.301 3.183-.796 5.769-2.288 6.765-2.493 1.59-8.766-.797-12.45-6.367-1.695-2.485-2.89-5.372-3.488-8.352-3.086-1.293-6.172-2.29-9.36-3.184 8.762 10.043 15.438 19.891 19.618 28.145m0 0" style="stroke:none;fill-rule:nonzero;fill:url(#ak)"></path><path d="M59.688 80.953A487 487 0 0 0 82.395 92.59c6.671-10.942 13.546-20.09 21.113-27.848-12.547 0-28.98 9.25-43.82 16.211m0 0" style="stroke:none;fill-rule:nonzero;fill:url(#al)"></path><path d="M165.453 147.586c6.672-6.563 12.848-13.524 18.723-20.883-14.238 3.68-24.297 1.492-37.942-6.066 5.575 9.047 11.75 18.297 19.22 26.949m0 0" style="stroke:none;fill-rule:nonzero;fill:url(#am)"></path><path d="M201.406 77.074c-6.472 3.98-14.34 6.168-20.914 7.758 7.668 5.074 15.535 9.648 23.703 13.922-.101-7.258-1.093-14.52-2.789-21.68m0 0" style="stroke:none;fill-rule:nonzero;fill:url(#an)"></path><path d="M186.27 167.18c6.968 5.07 14.539 9.246 22.507 12.629-2.59-6.164-4.582-12.532-5.675-19.094-4.782 2.484-11.055 5.172-16.832 6.562Zm0 0" style="stroke:none;fill-rule:nonzero;fill:url(#ao)"></path><path d="M184.176 126.703a158 158 0 0 0 17.332 13.125c0-6.96.597-13.824 1.594-20.683-6.079 3.48-13.247 6.164-18.926 7.656Zm0 0" style="stroke:none;fill-rule:nonzero;fill:url(#ap)"></path><path d="M163.96 106.016c5.477-5.47 10.954-12.036 16.634-21.184-11.254 2.785-23.703.2-36.95-5.668 6.973 10.145 13.543 18.996 20.317 26.852m0 0" style="stroke:none;fill-rule:nonzero;fill:url(#aq)"></path><path d="M114.266 95.473c-3.786 3.879-12.051 4.18-17.23-.399-2.391-2.086-3.587-5.168-3.485-8.254-3.887 1.293-7.172 3.282-11.254 5.868 10.156 4.874 18.223 9.351 25.297 14.917 6.672-6.164 13.344-11.039 19.918-15.91-3.688-2.187-6.875-3.98-10.559-5.172.399 3.383-.695 6.665-2.887 8.95Zm0 0" style="stroke:none;fill-rule:nonzero;fill:url(#ar)"></path><path d="M72.336 146.395c0 3.578-1.594 7.753-3.883 11.238-4.98 7.457-12.45 8.152-16.832 4.472-2.09-1.69-2.988-4.574-2.789-7.757-3.883.597-7.367.898-11.453.996 6.476 7.457 14.144 13.922 23.805 19.691 8.96-11.535 15.336-23.273 22.109-35.703-3.785 2.684-7.371 5.07-10.957 6.961Zm0 0" style="stroke:none;fill-rule:nonzero;fill:url(#as)"></path><path d="M58.195 35.207 56.898 36.5C51.223 46.543 43.457 58.379 37.68 64.145l-.399.996.996.296c3.684-.792 6.375-1.687 9.36-2.683l.5-.695.496-.696c.199-2.785 1.297-5.87 3.09-8.554 3.187-4.774 7.765-7.758 11.949-7.856 1.195 0 2.39.297 3.484.895 1.496.797 2.39 2.484 2.692 4.773l.996.598c2.789-1.395 5.676-2.586 8.562-3.48l1.098-.895-.2-.598c-6.773-4.375-13.843-8.156-21.214-11.238h-.895v.097Zm0 0" style="stroke:none;fill-rule:nonzero;fill:url(#at)"></path><path d="M146.234 120.535c6.172-4.375 12.051-8.75 17.727-14.52-3.086-.495-6.074-1.195-9.063-2.187.297 2.984-.5 5.469-2.59 6.961-3.187 2.09-9.062-1.293-12.745-7.258-1.395-2.09-2.391-4.476-2.79-6.965-3.488-1.789-6.574-3.379-9.062-4.87 6.172 8.55 12.05 18.597 18.422 28.94Zm0 0" style="stroke:none;fill-rule:nonzero;fill:url(#au)"></path><path d="M135.676 40.676c-3.285 1.691-5.973 3.777-8.961 5.77l-3.188 2.085v.598l1.692 1.59c1.097.597 5.476 3.383 6.87 4.18l.798-.598c-.895-2.985-.895-5.371.101-6.266.598-.597 1.196-.797 1.992-.797 2.989 0 6.872 3.88 9.461 7.559 1.891 2.586 3.286 5.371 3.985 7.758l.695.797.7.695c2.288.797 4.378 1.691 6.472 1.988l.996-.398v-.793c-2.492-2.586-5.082-6.067-7.867-9.746-3.188-4.38-7.074-9.25-11.156-13.727l-1.493-.894h-1.097Zm0 0" style="stroke:none;fill-rule:nonzero;fill:url(#av)"></path><path d="M193.738 143.61c.2 2.785-.597 6.066-2.289 8.75-3.488 5.667-9.66 5.968-13.347 2.886-2.192-1.793-3.387-4.379-3.485-7.164-3.187.102-6.273-.098-9.262-.496 6.176 7.36 13.247 13.926 20.915 19.594 5.777-8.754 10.855-17.903 15.136-27.45-2.488 1.391-5.078 2.684-7.668 3.778Zm0 0" style="stroke:none;fill-rule:nonzero;fill:url(#aw)"></path><path d="m132.887 54.398-.797.7c.597 2.086 1.894 4.375 3.586 6.859 3.09 4.578 7.668 9.152 10.957 9.152.996 0 1.89-.5 2.39-1.293.895-1.293 1.196-3.28.797-5.57l-.699-.695-.695-.797c-5.281-1.988-10.36-5.07-15.54-8.356m0 0" style="stroke:none;fill-rule:nonzero;fill:url(#ax)"></path><path d="M142.746 171.953c-1.293 1.192-1.594 3.578-1.094 6.465 7.172 2.883 12.45 5.965 18.227 7.953-.3-2.484-1.297-5.367-3.586-8.152-3.785-4.774-7.668-7.262-10.656-7.262a4.35 4.35 0 0 0-2.89 1.094Zm0 0" style="stroke:none;fill-rule:nonzero;fill:url(#ay)"></path><path d="M175.613 98.16c-1.793 2.586-2.691 5.668-2.39 8.75a48.4 48.4 0 0 0 20.515-3.281c-.199-3.582-1.992-6.664-5.18-8.75-1.394-.899-2.988-1.293-4.581-1.293-3.383 0-6.473 1.687-8.364 4.574m0 0" style="stroke:none;fill-rule:nonzero;fill:url(#az)"></path><path d="M37.281 178.117v22.578c10.657-8.652 17.328-17.105 23.801-25.562-9.262 2.785-17.824 3.879-23.8 2.887Zm0 0" style="stroke:none;fill-rule:nonzero;fill:url(#aA)"></path><path d="M37.281 87.715v22.578c9.063-8.156 15.535-18.598 22.508-29.34-8.066 3.781-16.73 6.762-22.508 6.762m0 0" style="stroke:none;fill-rule:nonzero;fill:url(#aB)"></path><path d="M37.281 132.969v22.574c10.555-9.25 17.43-18.598 23.801-27.45-10.555 4.177-18.223 5.27-23.8 4.876m0 0" style="stroke:none;fill-rule:nonzero;fill:url(#aC)"></path><path d="M61.082 175.234c7.969 4.676 16.035 9.051 24.402 12.93 5.375-10.742 11.153-22.18 22.508-34.91-15.238 3.383-29.781 16.906-46.91 21.98m0 0" style="stroke:none;fill-rule:nonzero;fill:url(#aD)"></path><path d="M61.082 128.094c7.172 4.277 14.543 8.054 22.11 11.437 7.769-14.222 16.132-24.066 24.5-31.926-17.13 2.387-33.165 15.22-46.708 20.59Zm0 0" style="stroke:none;fill-rule:nonzero;fill:url(#aE)"></path><path d="M169.938 188.262c6.074-6.563 11.55-13.625 16.43-21.082-11.75 2.882-24.895 2.386-37.743-4.875 6.672 9.547 13.64 18.3 21.41 25.957Zm0 0" style="stroke:none;fill-rule:nonzero;fill:url(#aF)"></path><path d="M107.793 107.508c7.867 6.265 14.637 14.023 21.71 25.558 5.974-4.773 11.45-8.652 16.731-12.43-9.062-5.073-21.312-13.425-34.46-13.425-1.294 0-2.688 0-3.981.297m0 0" style="stroke:none;fill-rule:nonzero;fill:url(#aG)"></path><path d="M103.508 64.742c8.965 8.055 17.031 17.106 24.203 26.953 5.574-3.98 10.953-7.957 16.031-12.53-12.847-5.669-26.39-14.321-40.133-14.321Zm0 0" style="stroke:none;fill-rule:nonzero;fill:url(#aH)"></path><path d="M107.992 153.254a136 136 0 0 1 24.399 21.98c5.578-5.27 11.054-9.347 16.035-12.93-7.672-4.374-17.332-10.242-30.375-10.144-3.387 0-6.774.399-10.16 1.094Zm0 0" style="stroke:none;fill-rule:nonzero;fill:url(#aI)"></path><path d="M118.05 183.488c-4.183 5.469-9.859 7.957-15.636 5.371-3.387-1.59-5.777-4.476-5.777-8.554-3.684 2.09-7.371 4.972-11.254 7.86 9.46 4.374 19.12 7.855 27.387 11.632 5.18-9.246 11.851-17.5 19.62-24.664-3.683-.992-7.468-1.39-11.355-1.488.399 3.578-.797 6.96-2.984 9.746Zm0 0" style="stroke:none;fill-rule:nonzero;fill:url(#aJ)"></path><path d="M51.422 99.95c-1.594 2.386-2.59 5.171-2.887 8.155a108.6 108.6 0 0 0 23.203-9.25c0-3.48-1.195-6.168-3.883-7.558q-1.341-.744-2.988-.598c-4.879 0-10.258 4.774-13.445 9.25m0 0" style="stroke:none;fill-rule:nonzero;fill:url(#aK)"></path><path d="M167.844 58.578c-1.196 2.484-1.594 5.07-1.094 7.457 6.871-.297 13.645-1.89 19.816-4.87-.597-3.481-2.988-6.466-6.171-7.86-1.196-.594-2.391-.895-3.688-.793-3.785 0-7.168 2.386-8.863 6.066m0 0" style="stroke:none;fill-rule:nonzero;fill:url(#aL)"></path><path d="M94.246 36c-1.992 1.992-2.988 5.074-2.887 8.355 7.868-1.39 14.641-1.292 21.41.598-.597-2.586-1.792-5.074-3.585-7.062-2.29-2.786-5.477-4.672-8.762-4.672-2.09 0-4.281.894-6.176 2.781m0 0" style="stroke:none;fill-rule:nonzero;fill:url(#aM)"></path><path d="M132.59 47.836c-1.195 1.195-1.098 3.879 0 6.96 5.379 3.282 10.855 6.665 16.633 8.755-.7-2.688-2.293-5.867-4.383-8.852-2.89-3.98-6.774-7.758-9.86-7.758-.898 0-1.695.399-2.292.996Zm0 0" style="stroke:none;fill-rule:nonzero;fill:url(#aN)"></path><path d="M51.324 52.512c-2.094 3.18-3.187 6.562-3.289 9.547 8.766-3.184 14.942-7.559 22.211-11.141-.101-2.586-1.195-4.574-2.89-5.566-1.094-.598-2.29-.899-3.684-.899-4.184 0-9.063 2.887-12.45 8.059Zm0 0" style="stroke:none;fill-rule:nonzero;fill:url(#aO)"></path><path d="M143.645 79.164c5.18-4.574 9.359-8.355 13.644-13.328-2.789-.297-5.281-1.293-8.168-2.387.7 2.489.598 4.676-.398 6.067-2.489 3.382-8.563-1.887-12.547-7.856-1.496-2.187-2.89-4.574-3.688-6.96-3.484-2.188-5.773-3.68-9.062-5.571 8.265 10.84 15.14 22.379 20.219 29.934Zm0 0" style="stroke:none;fill-rule:nonzero;fill:url(#aP)"></path><path d="M80.504 46.941c7.668 4.973 15.437 11.04 23.004 17.801 5.676-5.867 12.847-11.039 19.918-15.613-3.387-1.89-7.367-3.184-10.656-4.176.597 2.984.199 6.067-2.192 8.352-3.683 3.78-10.457 2.984-15.137-.696-2.488-2.086-3.984-5.07-4.082-8.254-3.484.598-6.87 1.493-10.855 2.684Zm0 0" style="stroke:none;fill-rule:nonzero;fill:url(#aQ)"></path><path d="M186.668 61.164c.297 2.188 0 4.473-.797 6.66-2.89 7.461-8.965 9.75-15.137 4.676-2.093-1.59-3.488-3.879-3.886-6.465-3.188.2-6.274 0-9.461-.297a141.3 141.3 0 0 0 23.207 18.996c4.879-7.757 9.86-17.207 15.136-29.242a52.4 52.4 0 0 1-8.964 5.672Zm0 0" style="stroke:none;fill-rule:nonzero;fill:url(#aR)"></path><path d="M70.344 50.918c.3 3.086-.598 6.863-2.59 10.344-4.48 8.054-11.95 11.437-17.129 7.558-1.793-1.293-2.59-3.777-2.488-6.761-3.387 1.293-6.375 2.386-10.856 3.082 5.676 5.171 13.446 10.742 22.508 15.812 7.367-11.637 14.043-23.77 20.715-34.012-3.785 1.094-7.07 2.485-10.16 3.977m0 0" style="stroke:none;fill-rule:nonzero;fill:url(#aS)"></path><path d="M58.195 35.207c7.07 2.984 14.739 6.86 22.309 11.734 6.273-9.546 12.945-17.8 20.016-22.18a61 61 0 0 0-8.563-.593c-10.559 0-21.414 3.082-33.762 11.137Zm0 0" style="stroke:none;fill-rule:nonzero;fill:url(#aT)"></path><path d="M172.125 43.66c5.578 3.977 15.34 9.05 23.504 11.832-2.59-11.633-2.785-20.883-2.785-20.883s-10.856 6.266-20.617 8.95Zm0 0" style="stroke:none;fill-rule:nonzero;fill:url(#aU)"></path><path d="M157.29 65.836c5.374-6.164 10.257-12.73 14.835-22.176-9.86 2.684-21.508 2.086-35.352-2.984 8.364 8.554 14.739 19.293 20.516 25.16m0 0" style="stroke:none;fill-rule:nonzero;fill:url(#aV)"></path><path d="M123.426 49.23c4.285-2.886 8.367-6.07 13.347-8.457-13.843-5.168-22.707-13.921-36.253-15.91 7.074 5.371 15.539 14.817 22.906 24.465Zm0 0" style="stroke:none;fill-rule:nonzero;fill:url(#aW)"></path><path d="M37.281 42.566v22.575c6.574-6.164 15.438-20.188 20.914-29.934-10.457 6.762-20.914 7.36-20.914 7.36m0 0" style="stroke:none;fill-rule:nonzero;fill:url(#aX)" data-source="https://football-logos.cc"></path><!-- source: https://football-logos.cc --></svg>